<?xml version="1.0" encoding="utf-8"?>
<!-- Generator: Adobe Illustrator 22.1.0, SVG Export Plug-In . SVG Version: 6.00 Build 0)  -->
<svg version="1.1" id="Layer_1" xmlns="http://www.w3.org/2000/svg" xmlns:xlink="http://www.w3.org/1999/xlink" x="0px" y="0px"
	 viewBox="0 0 512 512" style="enable-background:new 0 0 512 512;" xml:space="preserve">
<style type="text/css">
	.st0{fill:#FCE575;}
	.st1{fill:#FFD551;}
	.st2{fill:#FFA730;}
	.st3{fill:#E58D23;}
	.st4{fill:#FF624B;}
	.st5{fill:#FFF4C1;}
	.st6{fill:#FCDA4F;}
	.st7{fill:#FF4B34;}
	.st8{fill:#CCC033;}
	.st9{fill:#99AF17;}
	.st10{fill:#FF9079;}
	.st11{fill:#EACF32;}
	.st12{fill:#F9BB32;}
	.st13{fill:#FFEA63;}
	.st14{fill:#FFEACF;}
	.st15{fill:#FFD59A;}
	.st16{fill:#FFC34C;}
	.st17{fill:#A56021;}
	.st18{fill:#FFDF74;}
	.st19{fill:#BF6C0D;}
	.st20{fill:#FFB74B;}
	.st21{fill:#8C4C17;}
	.st22{fill:#FCF9DE;}
	.st23{fill:#DB9C2E;}
	.st24{fill:#FFF9DC;}
	.st25{fill:none;}
</style>
<g>
	<g>
		<path class="st8" d="M424.372,213.589c3.151-5.082,5.016-11.355,5.016-18.147c0-15.764-10.029-28.742-22.929-30.461
			c0.694-2.771,1.072-5.702,1.072-8.74c0-16.934-11.571-30.661-25.844-30.661s-25.844,13.727-25.844,30.661
			c0,3.015,0.373,5.925,1.057,8.678c-12.079,2.574-21.247,15.096-21.247,30.168c0,6.792,1.865,13.066,5.016,18.147
			c-11.61,3.009-20.305,15.27-20.305,29.947c0,16.934,11.571,30.661,25.844,30.661h68.677c1.288,0.234,2.607,0.356,3.95,0.356
			c14.273,0,25.844-13.727,25.844-30.661C444.677,228.859,435.982,216.598,424.372,213.589z"/>
	</g>
	<g>
		<path class="st17" d="M383.357,228.017L383.357,228.017c-1.739,2.063-4.559,2.063-6.298,0L359.95,207.72
			c-1.739-2.063-1.739-5.409,0-7.472v0c1.739-2.063,4.559-2.063,6.298,0l17.108,20.297
			C385.096,222.608,385.096,225.954,383.357,228.017z"/>
	</g>
	<g>
		<g>
			<path class="st9" d="M336.858,243.18c0-14.677,8.695-26.938,20.305-29.947c-3.151-5.082-5.016-11.355-5.016-18.147
				c0-15.071,9.168-27.594,21.247-30.168c-0.684-2.752-1.057-5.663-1.057-8.678c0-13.511,7.369-24.972,17.596-29.057
				c-2.591-1.035-5.362-1.604-8.248-1.604c-14.273,0-25.844,13.727-25.844,30.661c0,3.015,0.373,5.925,1.057,8.678
				c-12.079,2.574-21.247,15.096-21.247,30.168c0,6.792,1.865,13.066,5.016,18.147c-11.61,3.009-20.305,15.27-20.305,29.947
				c0,16.934,11.571,30.661,25.844,30.661h16.495C348.428,273.841,336.858,260.113,336.858,243.18z"/>
		</g>
	</g>
	<g>
		<path class="st21" d="M384.016,222.929c-1.739,2.063-4.559,2.063-6.298,0l-17.108-20.297c-0.467-0.554-0.805-1.203-1.021-1.893
			c-1.365,2.073-1.246,5.074,0.361,6.981l17.108,20.297c1.739,2.063,4.559,2.063,6.298,0c1.272-1.509,1.609-3.702,1.021-5.579
			C384.266,222.607,384.148,222.773,384.016,222.929z"/>
	</g>
	<g>
		<path class="st19" d="M382.52,304.031L382.52,304.031c-2.46,0-4.453-1.994-4.453-4.453V191.568c0-2.46,1.994-4.453,4.453-4.453
			l0,0c2.46,0,4.453,1.994,4.453,4.453v108.009C386.973,302.037,384.979,304.031,382.52,304.031z"/>
	</g>
	<g>
		<path class="st19" d="M381.94,259.457L381.94,259.457c-1.739-2.063-1.739-5.409,0-7.472l17.108-20.297
			c1.739-2.063,4.559-2.063,6.298,0h0c1.739,2.063,1.739,5.409,0,7.472l-17.108,20.297
			C386.499,261.521,383.679,261.521,381.94,259.457z"/>
	</g>
	<g>
		<path class="st17" d="M381.695,298.747V192.398c0-2.151,1.085-3.997,2.639-4.822c-0.555-0.294-1.168-0.461-1.814-0.461
			c-2.46,0-4.453,2.366-4.453,5.283v106.349c0,2.918,1.994,5.283,4.453,5.283c0.647,0,1.26-0.167,1.814-0.461
			C382.78,302.745,381.695,300.898,381.695,298.747z"/>
	</g>
	<g>
		<path class="st17" d="M382.93,255.899l17.108-20.297c1.739-2.063,4.559-2.063,6.298,0c0.103,0.122,0.198,0.248,0.288,0.378
			c0.136-1.531-0.289-3.119-1.278-4.292c-1.739-2.063-4.559-2.063-6.298,0l-17.108,20.297c-1.637,1.942-1.732,5.018-0.288,7.094
			C381.755,257.918,382.18,256.789,382.93,255.899z"/>
	</g>
	<g>
		<path class="st2" d="M329.411,320.619l-21.044-204.713h-0.208v-2.229c0-2.417-0.876-4.753-2.465-6.575l-43.107-49.404
			c-0.639-0.732-1.563-1.152-2.534-1.152c-0.972,0-1.896,0.42-2.534,1.152l-43.107,49.404c-1.589,1.822-2.465,4.157-2.465,6.575
			v2.233l-21.044,204.709H329.411z"/>
	</g>
	<g>
		<path class="st3" d="M234.945,113.676c0-2.417,0.876-4.753,2.465-6.575l34.142-39.128l-8.966-10.276
			c-0.639-0.732-1.563-1.152-2.534-1.152c-0.972,0-1.896,0.42-2.534,1.152l-43.107,49.404c-1.589,1.822-2.465,4.157-2.465,6.575
			v2.233l-21.044,204.709h23l21.044-204.709V113.676z"/>
	</g>
	<g>
		<path class="st8" d="M453.571,422.382C209.084,571.355,78.262,408.395,43.083,353.295c-5.941-9.305,2.7-21.321,19.039-26.515
			c98.719-31.382,416.419-117.823,408.529,72.402C470.306,407.501,464.026,416.011,453.571,422.382z"/>
	</g>
	<g>
		<path class="st16" d="M330.959,320.619H189.353c-3.314,0-6-2.686-6-6v-77.611c0-3.314,2.686-6,6-6h141.606c3.314,0,6,2.686,6,6
			v77.611C336.959,317.932,334.273,320.619,330.959,320.619z"/>
	</g>
	<g>
		<path class="st20" d="M223.353,257.007c0-3.314,2.686-6,6-6h107.606v-14c0-3.314-2.687-6-6-6H189.353c-3.314,0-6,2.686-6,6v77.611
			c0,3.313,2.686,6,6,6h34V257.007z"/>
	</g>
	<g>
		<path class="st9" d="M82.108,320.619c-7.367,2.203-14.073,4.282-19.986,6.162c-16.339,5.194-24.98,17.21-19.039,26.515
			c35.179,55.1,166.001,218.06,410.488,69.086c10.455-6.371,16.735-14.88,17.079-23.199c0.33-7.941,0.079-15.389-0.687-22.39
			C255.109,502.032,130.056,384.74,82.108,320.619z"/>
	</g>
	<g>
		<path class="st9" d="M465.126,381.668c-1.09,0-2.176-0.442-2.965-1.313c-37.615-41.506-150.612-5.192-151.75-4.821
			c-2.1,0.688-4.358-0.459-5.045-2.559s0.459-4.358,2.558-5.045c4.843-1.584,119.079-38.282,160.165,7.052
			c1.483,1.638,1.359,4.167-0.277,5.65C467.045,381.326,466.084,381.668,465.126,381.668z"/>
	</g>
	<g>
		<path class="st3" d="M287.391,320.619h-54.47v-41.006c0-6.627,5.373-12,12-12h30.47c6.627,0,12,5.373,12,12V320.619z"/>
	</g>
	<g>
		<path class="st19" d="M241.921,287.612c0-6.627,5.373-12,12-12h30.47c0.819,0,1.618,0.083,2.39,0.24
			c-1.579-4.784-6.078-8.24-11.39-8.24h-30.47c-6.627,0-12,5.373-12,12v41.006h9V287.612z"/>
	</g>
	<g>
		<g>
			<path class="st3" d="M246.101,194.404c-0.848,3.979-0.907,8.024-0.174,12.023l8.518,46.505c0.203,1.11,0.724,2.1,1.462,2.9
				c-1.17,1.263-2.891,2.066-4.812,2.066h-4.482c-3.116,0-5.759-2.089-6.286-4.966l-8.518-46.505
				c-0.733-3.999-0.674-8.044,0.174-12.023l8.788-41.218l2.258-10.158h14.117l-2.258,10.158L246.101,194.404z"/>
		</g>
		<g>
			<path class="st20" d="M250.428,231.007l4.016,21.925c0.203,1.109,0.723,2.1,1.462,2.9c-1.17,1.263-2.891,2.066-4.812,2.066
				h-4.482c-3.115,0-5.759-2.089-6.286-4.966l-4.016-21.925H250.428z"/>
		</g>
		<g>
			<polygon class="st2" points="239.975,251.007 236.312,230.434 250.428,230.434 254.091,251.007 			"/>
		</g>
	</g>
	<g>
		<path class="st5" d="M265.113,143.3l2.258-10.158l8.788-41.218c0.849-3.979,0.907-8.024,0.174-12.023l-8.518-46.505
			c-0.527-2.877-3.17-4.966-6.286-4.966h-4.481c-3.517,0-6.378,2.682-6.378,5.978V143.3H265.113z"/>
	</g>
	<g>
		<path class="st0" d="M262.042,91.924c0.848-3.979,0.907-8.024,0.174-12.023l-8.518-46.505c-0.203-1.11-0.724-2.1-1.462-2.9
			c1.17-1.263,2.891-2.066,4.812-2.066h4.482c3.116,0,5.759,2.089,6.286,4.966l8.518,46.505c0.733,3.999,0.674,8.044-0.174,12.023
			l-8.788,41.218l-2.258,10.158h-14.117l2.258-10.158L262.042,91.924z"/>
	</g>
	<g>
		<path class="st5" d="M260.156,136.573l-10.838-2.117l-43.977-8.237c-4.245-0.795-8.561-0.85-12.828-0.163l-49.618,7.983
			c-3.07,0.494-5.299,2.971-5.299,5.892v4.2c0,3.296,2.861,5.978,6.378,5.978h116.182V136.573z"/>
	</g>
	<g>
		<path class="st0" d="M205.341,139.451c-4.245-0.795-8.561-0.85-12.828-0.163l-49.618,7.983c-1.184,0.19-2.24,0.678-3.095,1.37
			c-1.347-1.097-2.204-2.71-2.204-4.51v-4.2c0-2.92,2.229-5.398,5.299-5.891l49.618-7.983c4.267-0.687,8.583-0.632,12.828,0.163
			l43.977,8.237l10.838,2.117v13.231l-10.838-2.117L205.341,139.451z"/>
	</g>
	<g>
		<path class="st5" d="M251.03,143.028l-2.258,10.158l-8.788,41.218c-0.848,3.979-0.907,8.024-0.174,12.023l8.518,46.505
			c0.527,2.877,3.17,4.966,6.286,4.966h4.481c3.517,0,6.378-2.682,6.378-5.978V143.028H251.03z"/>
	</g>
	<g>
		<path class="st0" d="M254.101,194.404c-0.848,3.979-0.907,8.024-0.174,12.023l8.518,46.505c0.203,1.11,0.724,2.1,1.462,2.9
			c-1.17,1.263-2.891,2.066-4.812,2.066h-4.482c-3.116,0-5.759-2.089-6.286-4.966l-8.518-46.505
			c-0.733-3.999-0.674-8.044,0.174-12.023l8.788-41.218l2.258-10.158h14.117l-2.258,10.158L254.101,194.404z"/>
	</g>
	<g>
		<path class="st5" d="M259.96,149.755l10.838,2.117l43.977,8.237c4.245,0.795,8.561,0.85,12.828,0.163l49.618-7.983
			c3.07-0.494,5.299-2.971,5.299-5.892v-4.2c0-3.296-2.861-5.978-6.378-5.978H259.96V149.755z"/>
	</g>
	<g>
		<path class="st0" d="M314.775,146.877c4.245,0.795,8.561,0.85,12.828,0.163l49.618-7.983c1.184-0.19,2.24-0.678,3.095-1.37
			c1.347,1.097,2.204,2.71,2.204,4.51v4.2c0,2.92-2.229,5.398-5.299,5.891l-49.618,7.983c-4.267,0.687-8.583,0.632-12.828-0.163
			l-43.977-8.237l-10.838-2.117v-13.231l10.838,2.117L314.775,146.877z"/>
	</g>
	<g>
		<circle class="st19" cx="259.96" cy="143.3" r="13.857"/>
	</g>
	<g>
		<path class="st11" d="M161.469,237.548c2.987-4.818,4.755-10.765,4.755-17.205c0-14.945-9.508-27.25-21.738-28.88
			c0.658-2.627,1.016-5.406,1.016-8.286c0-16.054-10.97-29.069-24.502-29.069s-24.502,13.015-24.502,29.069
			c0,2.858,0.354,5.617,1.002,8.227c-11.452,2.44-20.144,14.312-20.144,28.601c0,6.439,1.768,12.387,4.755,17.205
			c-11.007,2.853-19.251,14.477-19.251,28.392c0,16.054,10.97,29.069,24.502,29.069h65.11c1.221,0.222,2.472,0.338,3.745,0.338
			c13.532,0,24.502-13.015,24.502-29.069C180.719,252.026,172.476,240.401,161.469,237.548z"/>
	</g>
	<g>
		<path class="st17" d="M122.583,251.227L122.583,251.227c-1.649,1.956-4.322,1.956-5.971,0l-16.22-19.243
			c-1.649-1.956-1.649-5.128,0-7.084l0,0c1.649-1.956,4.322-1.956,5.971,0l16.22,19.243
			C124.232,246.1,124.232,249.271,122.583,251.227z"/>
	</g>
	<g>
		<g>
			<path class="st8" d="M78.499,265.603c0-13.915,8.243-25.539,19.251-28.392c-2.987-4.818-4.755-10.765-4.755-17.205
				c0-14.289,8.692-26.161,20.144-28.601c-0.648-2.609-1.002-5.369-1.002-8.227c0-12.809,6.986-23.675,16.682-27.548
				c-2.456-0.981-5.084-1.521-7.819-1.521c-13.532,0-24.502,13.015-24.502,29.069c0,2.858,0.354,5.617,1.002,8.227
				c-11.452,2.44-20.144,14.312-20.144,28.601c0,6.439,1.768,12.387,4.755,17.205c-11.007,2.853-19.251,14.477-19.251,28.392
				c0,16.054,10.97,29.069,24.502,29.069h15.638C89.469,294.672,78.499,281.657,78.499,265.603z"/>
		</g>
	</g>
	<g>
		<path class="st21" d="M123.209,246.404c-1.649,1.956-4.322,1.956-5.971,0l-16.22-19.243c-0.443-0.526-0.763-1.141-0.968-1.795
			c-1.294,1.965-1.182,4.81,0.343,6.619l16.22,19.243c1.649,1.956,4.322,1.956,5.971,0c1.206-1.43,1.526-3.51,0.968-5.289
			C123.445,246.099,123.333,246.256,123.209,246.404z"/>
	</g>
	<g>
		<path class="st19" d="M121.79,323.294L121.79,323.294c-2.332,0-4.222-1.89-4.222-4.222v-102.4c0-2.332,1.89-4.222,4.222-4.222h0
			c2.332,0,4.222,1.89,4.222,4.222v102.4C126.012,321.404,124.122,323.294,121.79,323.294z"/>
	</g>
	<g>
		<path class="st19" d="M121.24,281.035L121.24,281.035c-1.649-1.956-1.649-5.128,0-7.084l16.22-19.243
			c1.649-1.956,4.322-1.956,5.971,0l0,0c1.649,1.956,1.649,5.128,0,7.084l-16.22,19.243
			C125.562,282.991,122.889,282.991,121.24,281.035z"/>
	</g>
	<g>
		<path class="st17" d="M121.008,318.285V217.458c0-2.039,1.028-3.79,2.502-4.572c-0.526-0.279-1.107-0.437-1.72-0.437
			c-2.332,0-4.222,2.243-4.222,5.009v100.826c0,2.767,1.89,5.009,4.222,5.009c0.613,0,1.194-0.159,1.72-0.437
			C122.037,322.075,121.008,320.324,121.008,318.285z"/>
	</g>
	<g>
		<path class="st17" d="M122.178,277.662l16.22-19.243c1.649-1.956,4.322-1.956,5.971,0c0.097,0.115,0.188,0.236,0.273,0.359
			c0.129-1.451-0.274-2.957-1.212-4.069c-1.649-1.956-4.322-1.956-5.971,0l-16.22,19.243c-1.552,1.841-1.642,4.758-0.273,6.725
			C121.065,279.575,121.467,278.505,122.178,277.662z"/>
	</g>
	<g>
		<path class="st20" d="M309.16,223.191c-2.98,0-5.564-2.219-5.945-5.253l-4.168-33.19c-0.413-3.288,1.918-6.288,5.205-6.701
			c3.294-0.425,6.288,1.917,6.701,5.205l4.168,33.19c0.413,3.288-1.918,6.288-5.205,6.701
			C309.662,223.176,309.409,223.191,309.16,223.191z"/>
	</g>
	<g>
		<path class="st1" d="M325.186,306.667c-3.313,0-6-2.687-6-6v-39.662c0-3.313,2.687-6,6-6s6,2.687,6,6v39.662
			C331.186,303.98,328.499,306.667,325.186,306.667z"/>
	</g>
	<g>
		<circle class="st9" cx="152.919" cy="356.474" r="15.322"/>
	</g>
	<g>
		<circle class="st9" cx="196.042" cy="381.684" r="15.322"/>
	</g>
	<g>
		<path class="st11" d="M429.663,263.898c-1.308,0-2.624-0.425-3.727-1.301c-2.596-2.061-3.029-5.835-0.969-8.43
			c7.655-9.643,0.124-20.675-0.2-21.14c-1.888-2.706-1.247-6.444,1.447-8.349c2.693-1.902,6.411-1.29,8.331,1.393
			c4.6,6.426,10.482,22.128-0.18,35.557C433.182,263.121,431.431,263.898,429.663,263.898z"/>
	</g>
</g>
</svg>
