<svg xmlns="http://www.w3.org/2000/svg" viewBox="0 0 512 512"><title>Artboard 122</title><g id="Farm_Land" data-name="Farm Land"><circle cx="320" cy="192" r="170.66667" style="fill:#cc3c00"/><path d="M385.69727,124.27018a31.7458,31.7458,0,0,0-15.22282,3.896,32.21361,32.21361,0,0,0-12.94483,43.494l.22136.41194a32.18974,32.18974,0,0,0,43.42187,13.18441,31.78761,31.78761,0,0,0,13.354-42.72428c-.07959-.152-.16016-.30469-.24056-.45622l-.00131-.00244q-.06688-.126-.13411-.252l-.00635-.01188-.06136-.11458-.01058-.01969-.05827-.10857L414,141.54l-.05664-.105-.015-.028-.0459-.08463-.03011-.05583-.03353-.06185c-.11214-.2067-.22656-.41585-.34-.62174a31.77625,31.77625,0,0,0-27.78157-16.31283Z" style="fill:#ffd432"/><path d="M320,85.33333A106.66674,106.66674,0,0,0,213.33333,192v.12077l.00017.05892v.03288l.00016.057.00016.03662c0,.01742,0,.03451.00016.05192l.00017.04232.00016.04671.00016.042.00017.04915.00016.03971.00032.05078.00033.03858.00032.04915c0,.01807.00017.026.00017.044.00016.01546.00032.02864.00032.0441l.00033.04395.00049.04883.00032.03987.00049.05778.00033.03.00048.057.00033.03581.00065.06152.00033.02653.001.08756.00049.03386.00065.05843.00049.03239.00065.05387.00065.04427.00065.04639.00065.04118.00066.04834.00065.04.00081.05062.00065.04.00082.047.00065.04444.00081.04541.00081.043.00082.04752.00081.04037.001.05078.00065.03987.001.04525.001.04525.00082.04232.001.04655.001.04687.001.0415.00114.04818.002.08838.001.0389.001.04541.00114.04443.001.04037.0013.04964.00114.04313.00114.04378.00114.04818.00114.03923.0013.05062.00114.03955.0013.04573.0013.04557.0013.044.00131.04395.0013.04475.0013.04265.00147.048.0013.04264.0013.0433.00163.05013.0013.04.00146.04362.00147.04606.00065.02116.00407.117.0013.03646.00147.043.00162.04541.00147.03988.00179.05143.0013.03678.00195.05062.00147.03955.00195.05127.00147.03825.002.04883.00163.04134.00179.048.00179.04265.00163.0428.00195.04623.002.04622.00163.04085.00212.04834.00162.04086.00212.04931.00179.03955.00228.05241.00163.03565.00309.07226.00081.01644.00391.08773.00195.04134.00212.04606.00211.04492.00212.04395.00228.04818.00195.0389.00228.04834.00212.04085.00227.04671.00212.04362.00212.04085.00244.04834.00211.04281.00244.04508.00212.043.00228.043.0026.04867.002.03662.0026.05094.00179.03207.00326.05973.00081.01351.00391.07226.00081.013.00879.15691v.0013l.00407.071.00081.01481.00358.05908.00163.03028.00326.05452.00195.03255.00309.05225.00228.03727.00325.05339.0018.03076.00358.05762.00195.03125.00342.05468.00211.0337.0031.05061.00276.043.00293.0446.00244.03988.00326.04947.00244.037.00342.0516.00195.03173.00374.05616.00163.02278c.00635.09554.01319.19629.01986.29167l.00211.0319.00407.0568.002.029.00407.05713.00211.03027.00423.0581.00212.02963.00374.05192.00277.03841.00374.04915.00277.03841.00358.04851.00277.03776.0039.05241.00277.03515.00358.04867.00309.04052.00391.05062.00228.02979.00439.05615.00212.02751c.008.10221.016.20263.02425.30485l.00081.01139.00586.07227.00114.013.00505.06071.00244.0306.00456.05517.00244.02946.00488.05876.00244.02783.00521.06136.00179.02262.00537.06169.00228.02816.00505.05859.00228.02588.00537.06087.00228.02588.0052.06071.00212.02311.00553.064.00163.0179c.00977.10889.01872.20882.02881.31755l.00033.00455.00667.07243.0013.01351.006.06511.00212.02229.00586.06234.00228.02425.00569.05892.00261.02849.00569.05924.00261.02686.00553.05745.00293.03011.00554.057.00293.02994.0052.05437.00326.03271.0057.05664.00227.02376.00635.06332.00163.01627c.01335.13314.027.26709.04085.40007l.00065.00749.00749.071.00163.0153.00732.07015.00147.01449.00732.06819.002.019.007.0656.00212.0192.00716.0669.00195.01806.00749.06983.0013.01107.0083.07649.00033.00342c.03076.27962.06185.55339.09456.8322l.00049.00472.00928.07763.00081.00749.00895.07536.00114.00993.00912.07633.00081.006.00912.07569.0013.01188.00928.07584.00016.00082c.03043.25065.06168.50032.09375.75049l.00016.00016.01058.08187.00016.00228.01026.07877.001.00716.0101.077.00081.00618.01042.07927.00016.00195a105.94915,105.94915,0,0,0,8.75895,30.37712A32.00005,32.00005,0,0,0,281.159,209.721,42.24033,42.24033,0,0,1,277.33333,192,42.71514,42.71514,0,0,1,320,149.33333a32,32,0,1,0,0-64Z" style="fill:#f4920b"/><path d="M262.83817,35.027a32.00366,32.00366,0,0,0,30.54554,53.65265,106.68656,106.68656,0,0,1,102.041,178.74506,107.09282,107.09282,0,0,1-22.57833,17.28021,31.9999,31.9999,0,1,0,31.74776,55.57026A170.20142,170.20142,0,0,0,431.39084,321.313l.00391-.00345q.202-.17436.40339-.3493l.00541-.00472.12855-.11175.00639-.00558c.08833-.07694.17586-.1533.2643-.23058l.012-.01053.12176-.10658.01007-.0088c.0881-.07717.17655-.15491.26448-.23225l.00639-.00558.12383-.10911.01226-.01076q.131-.11548.26177-.23127l.01-.00886.11837-.1049.01755-.0156q.12948-.115.25878-.23012l.00926-.00823.11947-.10657.01628-.01456c.08632-.07711.17309-.15468.259-.23173l.00823-.00742.11963-.10732.01721-.01548c.08655-.0778.17257-.1552.25918-.2334.00437-.00392-.001.00086.00316-.00282l.12119-.10945.02175-.01968.1167-.10565.008-.0072.12982-.11785.00823-.00742.116-.10542.02434-.02216.10934-.09967.01594-.01444.12775-.1167.00581-.00524.118-.108.02452-.02244.10858-.09949.01606-.01479.12694-.11659.00673-.00615.11722-.1079.02492-.023.10484-.09679.02038-.01876c.08326-.07694.166-.15347.24911-.23058l.02606-.02411.09932-.09219.02694-.02509q.12239-.11376.24456-.22776l.03-.028.09213-.086.0347-.03252c.08062-.07544.16-.14979.24053-.22534l.03131-.02946.09063-.08523.03487-.0328.11382-.10715.00518-.00494.12223-.11532.02722-.02573.09552-.09046.03148-.02975.11388-.108.00546-.00512.12252-.11641.02687-.02561.09483-.09023.03229-.03079.10605-.1011.01387-.01329.1217-.1163.02561-.02457.09288-.089.03711-.03562.09587-.09195.023-.0221.11964-.11515.02417-.02324.09586-.09242.034-.0328.09224-.08914.02952-.02848.11693-.11325.02572-.02492.09276-.09.03718-.036.09334-.0908.025-.02429.11917-.11607.02147-.02088.09805-.09576.033-.03234.09356-.09149.027-.02642.12-.11756.01226-.01214.104-.1022.03671-.036.08816-.08678.03084-.03038.11768-.11619.01416-.01392.10277-.10163.03631-.036.08442-.08361.03677-.03643.11641-.11561.00282-.0027.11331-.11273.03481-.0347.0869-.08666.03343-.03332.117-.11687a170.66668,170.66668,0,0,0,0-241.35912h0l-.1167-.1167-.03493-.03493c-.02722-.02676-.05812-.05766-.08511-.08465l-.03666-.03665-.11037-.10945-.00633-.00633c-.03775-.03775-.07728-.07682-.11526-.11434l-.038-.038-.08407-.08315-.03608-.03562c-.03528-.03482-.07349-.07257-.10853-.10761L439.899,70.545l-.11716-.11578-.03487-.03441-.08447-.08309-.03862-.03769c-.03527-.03482-.07014-.06923-.10559-.10376l-.0107-.0107-.11849-.11618-.03136-.03044c-.02981-.02935-.06082-.05991-.09092-.08908l-.03269-.03223-.10306-.1003-.01692-.01645-.11762-.11486-.03211-.03119-.08741-.08465-.0389-.038-.09592-.09316-.02193-.021c-.03809-.03717-.07768-.07538-.116-.11233l-.03591-.035c-.03026-.02889-.05564-.05381-.08585-.08264l-.03758-.03619c-.03268-.03177-.06312-.06129-.096-.09282l-.02285-.02193c-.03832-.03694-.07906-.0763-.11756-.113l-.03274-.03182c-.02751-.02612-.0595-.05674-.08678-.08309l-.04005-.03821-.0969-.09322-.02009-.01917-.12021-.11468-.0275-.02613-.0942-.09-.03453-.03269c-.03292-.03153-.06238-.05962-.09547-.09086l-.02566-.02475-.11837-.11238-.03-.02814c-.03021-.02883-.06-.0572-.0904-.0858l-.03862-.03677-.09195-.08689-.028-.02665-.11773-.11083-.03275-.0309-.087-.08188-.04246-.04017c-.02768-.02584-.0568-.05311-.08425-.07918l-.03556-.03326q-.058-.05456-.11618-.10882l-.03292-.03107-.08614-.08062-.04425-.04149-.08293-.0774-.03694-.03418c-.03867-.03637-.0774-.07233-.11624-.10841l-.03038-.02855c-.03056-.02825-.05979-.05518-.09012-.08367l-.04224-.039c-.02767-.02584-.05622-.05254-.08413-.07815l-.03636-.0336-.11739-.10911-.027-.02468-.09369-.08678-.041-.03775-.08585-.07895-.03574-.033c-.03884-.03608-.0778-.07182-.11681-.10761l-.03-.02774-.09219-.08436-.04022-.037c-.02785-.02555-.0587-.05409-.08678-.07941l-.03516-.0324-.11952-.10939-.0187-.01686-.10191-.09317-.04034-.03665c-.02785-.02555-.05789-.05283-.086-.07815l-.0366-.03337-.11883-.10824-.01922-.01738-.102-.0923-.04074-.03706-.08442-.07613-.03867-.035c-.03913-.03545-.07993-.07256-.11929-.10778l-.01352-.01214c-.03625-.033-.07084-.06394-.10732-.09674l-.04115-.037-.08286-.07457-.0412-.03706-.10519-.09461-.03159-.02837-.10209-.091-.04218-.038-.0824-.07366-.04166-.037-.102-.091-.031-.02774c-.034-.02986-.07107-.06324-.10508-.0931l-.04632-.04126-.07889-.07015-.04328-.03821-.09909-.088-.02445-.0217c-.03666-.03251-.08028-.07107-.11711-.10329l-.03988-.03528-.08332-.07365L432.706,63.834l-.10231-.08988-.01945-.01715-.11832-.104-.04425-.03873-.07855-.06888-.04678-.0408-.08327-.07314-.04684-.04085c-.03389-.02976-.0736-.0644-.10778-.094l-.04632-.04033-.07636-.0667-.04874-.04229-.08575-.0747-.037-.03193c-.03677-.03217-.07768-.06756-.11468-.0995l-.04713-.04114-.07677-.06618-.048-.0416-.08257-.07153-.04149-.03551c-.03965-.03458-.0755-.06537-.11538-.09972l-.0435-.03752c-.02567-.022-.05352-.04569-.079-.068l-.04794-.041-.08764-.07521-.03567-.03061c-.03982-.0343-.07734-.06629-.11739-.10036l-.043-.037-.0797-.06819-.04868-.04132-.08131-.06934-.04339-.03694-.11578-.09875-.04247-.036-.07993-.068-.04977-.04195-.08005-.06808-.04448-.03757-.11394-.09645-.04937-.04155-.07429-.06278-.0511-.04327-.07918-.06629-.04546-.03856-.11636-.09748-.03976-.03332-.08436-.071-.047-.03919c-.02866-.02406-.0553-.04656-.08419-.07038l-.04115-.0347c-.04039-.03349-.07739-.06451-.1175-.09817l-.0404-.03349-.08361-.0698-.04926-.041-.07751-.06417-.04909-.0408c-.03723-.03124-.07762-.06473-.11508-.09575l-.04034-.03343-.08408-.06934-.04914-.04086c-.026-.02141-.0538-.04414-.07958-.06577l-.04644-.03816-.11641-.09615-.04126-.0339-.08235-.06761-.05185-.04264-.075-.06163-.05138-.04218-.11515-.094-.04109-.03372-.08229-.0671-.05184-.04264-.07826-.06353-.04748-.03873-.10617-.08637-.0496-.0404-.08551-.0694-.05116-.04149c-.026-.02134-.04937-.04016-.07556-.06128l-.05161-.04195-.10473-.08448-.04374-.03544c-.03188-.0259-.0599-.0484-.092-.07406l-.05116-.04149-.07561-.06088-.05214-.042-.087-.06952-.0702-.05639-.08189-.06577-.0542-.04362c-.02348-.01842-.04989-.03976-.07314-.05841l-.054-.04293-.09207-.07365-.0519-.04132-.09536-.076-.05432-.04327-.07325-.05806-.054-.043c-.02629-.02077-.05248-.04143-.0786-.06249l-.07941-.06284-.07987-.0633-.05939-.047-.06577-.052c-.02222-.01715-.039-.03067-.06094-.048l-.0728-.05714c-.02641-.02089-.05081-.04022-.07745-.06088-.02918-.02319-.05663-.04466-.086-.06756l-.05807-.04563-.07043-.05525-.056-.044-.07418-.05806-.075-.05887-.08982-.07-.058-.04506-.06727-.05253-.06123-.04788-.06894-.05329-.07291-.05679c-.03216-.02527-.06209-.04828-.09448-.07332l-.05922-.04586-.06882-.05363-.05881-.04546-.06859-.05294-.06785-.05219c-.03522-.0274-.06583-.0511-.10128-.07826l-.06186-.04759-.0622-.04794-.06681-.05116-.06037-.04655-.06249-.04776c-.03827-.02952-.07245-.05588-.11089-.08511l-.06307-.04834-.063-.04828-.06525-.0496-.05743-.04408-.09046-.06882-.08643-.06572-.06411-.04891-.06238-.04719-.065-.04931-.06221-.047-.06313-.04793-.11-.08333-.06365-.048-.06416-.04851-.06393-.04828-.06232-.04667-.06313-.04747-.11158-.084-.06289-.04724-.06238-.04673-.06738-.05035-.05939-.04465-.06508-.04851c-.02964-.02227-.06261-.047-.09242-.06894l-.082-.06129-.06347-.04736-.06589-.04885-.05806-.04333-.069-.051-.06295-.04685-.11285-.08338-.05933-.04413-.06888-.05093-.05587-.04115-.06986-.05144-.06169-.04558-.11215-.08269-.06359-.04655-.06572-.04822-.05858-.04293-.06916-.05076-.057-.04183-.12165-.089-.05628-.04109-.07141-.05208-.05369-.039c-.02682-.01991-.04477-.0328-.07182-.05248l-.05023-.03642c-.04494-.033-.08511-.06209-.13028-.09484l-.05456-.03936-.073-.05317-.04845-.0351-.07786-.05622-.038-.02745-.1461-.10559-.04754-.03418-.07515-.054-.04989-.03608-.07481-.05363-.04764-.0343-.13546-.09679-.05156-.03729-.07412-.05294-.0492-.03493-.07654-.0549-.04482-.03193c-.04989-.03562-.0984-.06986-.14824-.10543l-.03838-.02733-.081-.05754-.04339-.031-.07982-.05634-.04028-.02877-.1476-.10433-.04494-.03159-.07688-.05432-.04661-.0328-.07861-.05559-.04517-.03182c-.04563-.03183-.09621-.06768-.14185-.0995l-.04649-.03268-.07458-.05248-.05231-.03666-.07417-.05162-.05053-.03533-.13281-.09276-.05317-.03706-.07469-.05213-.04932-.03413-.07694-.05346-.04851-.03378c-.05012-.03493-.10271-.07141-.15306-.10611l-.03217-.0225-.08114-.05582-.04408-.03072-.07981-.055-.04368-.03033-.15928-.10956-.03062-.02095-.08148-.05616-.04126-.02837-.08453-.05783-.03712-.02561-.2773-.18938-.04092-.028-.08223-.056-.041-.02768c-.09155-.06255-.18207-.12407-.27408-.18616l-.04218-.02883-.084-.05679-.03775-.02532c-.092-.062-.19042-.12873-.28254-.19048l-.03453-.02347c-.02774-.01853-.05835-.039-.0858-.05772l-.03758-.02515-.28288-.18944-.03436-.02284-.08919-.05973-.0305-.02037c-.09685-.06462-.19427-.12936-.29123-.19364l-.03016-.02c-.02762-.01842-.06192-.04121-.08977-.05939l-.0328-.02175c-.097-.06428-.18828-.12476-.28542-.18875l-.03648-.02405-.08592-.05645-.03809-.02521-.28847-.18949-.02918-.01905-.08844-.0576-.03746-.02457q-.14588-.09547-.29233-.19059l-.02492-.01617-.09195-.05973-.032-.02095c-.10208-.06617-.19933-.1289-.30141-.19507l-.01836-.01192-.09351-.06036-.031-.01991c-.1022-.06583-.19841-.12752-.30055-.19329l-.0213-.01347-.09322-.05961-.03078-.01974c-.10692-.06871-.20975-.13425-.317-.20238l-.00253-.00162q-.04868-.03141-.09782-.06237l-.02745-.01733c-.13972-.08907-.2814-.17873-.4214-.26717l-.02486-.01566-.09863-.06226-.00581-.00351c-.10738-.06779-.21217-.13391-.32-.20118l-.02193-.01409c-.0328-.02037-.06824-.04247-.10087-.06313l-.006-.00368c-.10772-.06721-.20733-.12954-.315-.19669l-.03148-.01951-.09507-.05915-.013-.00794c-.10289-.06422-.2105-.13086-.31356-.19479l-.0244-.01473-.09967-.06192-.00943-.00576c-.10324-.06364-.21861-.13482-.322-.19818l-.01531-.00932c-.0374-.02313-.06744-.04166-.10508-.06457l-.00454-.0027c-.10813-.06623-.21136-.12942-.3196-.19531l-.02538-.01571-.099-.06036-.015-.009c-.10353-.063-.21016-.12774-.31385-.19047l-.02262-.01387-.10145-.0614-.01007-.00592c-.1083-.06549-.2136-.1289-.32213-.19416l-.01629-.00984c-.03757-.02284-.06479-.039-.1026-.06163l-.01542-.00944c-.1087-.065-.2162-.12964-.325-.19427l-.00633-.004c-.03781-.02262-.07211-.04311-.11008-.06543l-.0038-.00242c-.11331-.06773-.22379-.1331-.33721-.20048l-.00092-.00046c-.03775-.02256-.07481-.04443-.11279-.06676l-.00156-.00109c-.11365-.06715-.22085-.13063-.33462-.19743l-.00759-.00438-.10934-.06422-.00564-.00334A171.01065,171.01065,0,0,0,277.4421,26.69693,31.842,31.842,0,0,0,262.83817,35.027Z" style="fill:#8e1600"/><path d="M422.27015,109.033a32.01376,32.01376,0,0,0-6.17953,36.55256A106.15144,106.15144,0,0,1,424.546,170.7422q.03566.1779.07354.35436c.02227.12171.04517.244.06888.36581a107.71757,107.71757,0,0,1,1.73111,13.24461,32,32,0,1,0,63.8531-4.3339q-.2706-3.98292-.72615-7.95421l-.0015-.01254-.01726-.14847-.00155-.01536c-.01243-.1068-.025-.21424-.03758-.32116l-.00161-.0122q-.008-.07008-.01634-.13971l-.004-.03344-.01687-.13977-.00138-.012-.019-.15848-.0023-.01933q-.00794-.066-.01611-.13167l-.00512-.04333-.01318-.10663-.006-.05064-.017-.13666-.00547-.04414-.01375-.11043-.00771-.063-.01082-.08632-.00811-.06474-.01059-.08332-.01669-.13086-.00829-.06629-.01133-.08729-.00691-.05387-.01179-.09235-.00593-.0469c-.01444-.11112-.02883-.22034-.04339-.33157l-.00311-.02521-.014-.10611-.00431-.03194c-.02158-.16429-.0423-.319-.06451-.483l-.00178-.01375q-.66827-4.94613-1.62477-9.85c-.03372-.17137-.06871-.34124-.105-.51151-.0351-.19117-.07153-.38135-.11031-.57251a170.01131,170.01131,0,0,0-13.56272-40.33611,32.02242,32.02242,0,0,0-51.44824-8.71339Z" style="fill:#ae2b00"/><path d="M405.33333,405.33333H64a42.66666,42.66666,0,0,1-42.66667-42.66666v-39.9279c0-19.13092,6.10659-37.85421,18.16969-52.70257C65.17146,238.44114,122.05438,192,234.66667,192s169.4952,46.44114,195.16364,78.0362C441.89341,284.88456,448,303.60785,448,322.73877v39.9279A42.66666,42.66666,0,0,1,405.33333,405.33333Z" style="fill:#216600"/><path d="M42.66667,341.33333S109.65,257.82344,187.19135,215.4278a17.78882,17.78882,0,0,1,20.94371,3.1407l0,0a17.54511,17.54511,0,0,1,.7064,24.1863C194.678,258.44475,149.33333,320,128,341.33333Z" style="fill:#9fe27c"/><path d="M42.66667,341.33333S109.65,257.82344,187.19135,215.4278a17.78882,17.78882,0,0,1,20.94371,3.1407l0,0a17.54511,17.54511,0,0,1,.7064,24.1863C194.678,258.44475,149.33333,320,128,341.33333Z" style="fill:#9fe27c"/><path d="M187.19141,215.42708c-.04761.02467-.09115.04948-.138.07552l-.03646.02084c-.03516.01823-.06771.03646-.10157.056l-.043.02343c-.04428.02344-.09115.04948-.13542.07422h-.0013c-.043.02344-.08985.04948-.13412.07422l-.04166.02214-.10547.05859-.03255.01823c-.09506.05208-.1836.10026-.27735.15234-.01042.00521-.02734.01563-.03646.02084-.03515.01823-.07031.03776-.10547.05729-.00911.00521-.02734.01562-.03776.02083l-.27343.15235c-.01042.0052-.02865.01562-.03776.02083l-.10547.05859-.03646.01953-.138.07683h-.0013c-.043.02474-.08985.05078-.13412.07552-.01042.00521-.03.01693-.03906.02213l-.10547.0586c-.01042.00521-.026.01432-.03516.01953l-.138.07682-.0026.0013c-.04427.02474-.08985.05079-.13412.07552-.013.00782-.02343.013-.03776.02084-.03776.02083-.0677.03776-.10677.05989-.00911.00521-.02474.01433-.03515.01954-.09375.05338-.181.10156-.27474.15494a.30534.30534,0,0,0-.03516.01953c-.03776.02084-.069.03776-.10677.0599l-.03646.01953c-.095.05339-.18229.10287-.276.15625l-.03255.01823c-.03776.02083-.07292.04167-.11068.0625-.00911.00521-.02213.013-.03255.01823-.09375.05339-.1836.10417-.27865.15755l-.02864.01563c-.03776.02213-.07943.04557-.11719.0677l-.026.01433c-.09375.05338-.1875.10677-.28255.16015l-.026.01433c-.03776.02213-.082.04687-.11979.069l-.02343.013c-.09376.05338-.1862.10547-.27995.15885-.01433.00912-.01823.01172-.03255.01953-.03777.02084-.07162.04037-.10938.0625l-.03385.01823c-.09375.05469-.1849.10677-.27865.16016l-.026.01432-.125.07292-.01563.00911c-.095.05339-.194.11068-.28776.16407l-.02083.013c-.043.02474-.08594.04817-.12891.07422l-.01432.00781c-.09766.056-.1901.10937-.28646.16536l-.02213.013c-.04427.02474-.08855.05078-.13282.07552l-.00781.00521c-.09765.05729-.19531.11328-.29167.16927l-.01562.00912c-.04427.02474-.08594.04948-.13021.07552l-.01693.00911c-.09375.05469-.1927.11328-.28776.168l-.01822.01042c-.04688.02734-.08855.05208-.13542.07943l-.00651.0026c-.09636.05729-.194.11328-.29037.17057l-.01692.01042c-.04427.02474-.08985.05208-.13412.07812l-.01042.00521c-.09635.05729-.1901.112-.28645.168l-.02344.01432c-.043.02474-.08464.04948-.12891.07553l-.01172.00651c-.09635.05729-.1901.112-.28776.16927l-.02083.01172c-.043.026-.08463.05078-.12891.07682l-.013.00781c-.09765.05729-.1901.112-.28776.16927l-.01823.01172c-.04687.02734-.09114.05339-.138.082l-.0026.0013c-.09636.0573-.19662.11589-.29427.17318l-.01172.00781c-.04688.02735-.09245.05469-.13932.082l-.00521.00391-.28906.17188-.01954.01171c-.04687.02735-.08854.05209-.13541.08073l-.00521.00261-.29427.17578-.00781.00521-.4375.26172-.01433.00911c-.14323.08594-.29166.17448-.43489.26172l-.013.00651c-.043.02734-.09375.05729-.138.08333l-.00652.00521c-.09635.05729-.19531.11719-.29166.17448l-.01172.00781c-.14323.08594-.28906.17578-.43229.26172a.156.156,0,0,1-.01953.01172c-.14584.08854-.28646.17448-.4336.26432l-.00781.00391c-.14974.09115-.29036.17708-.4388.26823l-.00912.00521c-.14583.08854-.29036.17838-.43619.26692l-.01172.00782c-.14584.08984-.293.17968-.43881.26953l-.0052.0026c-.14844.09115-.29037.17969-.43881.27084l-.00781.0052c-.14583.08985-.29036.17969-.4362.26954l-.01171.00781c-.14584.08984-.29037.17969-.4362.27083l-.00781.00391c-.14844.09245-.28907.181-.4375.27343l-.00782.00521c-.14843.09245-.28906.181-.4375.27344l-.00651.00391c-.14844.09245-.293.18359-.4414.27734h-.00131c-.14843.09375-.293.1849-.4414.27865l-.00391.0013c-.14844.09375-.29167.18489-.4401.27864l-.00391.00261c-.14583.09245-.293.18489-.4375.27734l-.00781.00521c-.14844.09375-.29037.18359-.4375.27734-.00521.00391,0,0-.00391.00391-.14844.09375-.29166.1849-.4388.27865l-.00521.0039c-.14713.09375-.28906.1849-.4362.27865l-.00651.00521c-.4427.28255-.8789.5638-1.32031.85026l-.00521.0026-.8789.57162-.00131.0013c-.14713.095-.29036.1888-.4375.28515l-.0039.00261c-.14714.09635-.29037.1888-.4362.28516l-.00391.0026c-.14713.09635-.29166.19141-.4375.28776h-.0013c-.14713.09635-.29166.19271-.4375.28906l-.0026.0013c-.293.19271-.58073.38412-.8724.57813l-.00651.00391c-.09766.0651-.19271.1276-.29036.1927-.33985.22657-.67709.45183-1.01823.67969l-.00521.00391c-.09635.0651-.19141.1276-.28776.19271l-.00261.0026c-.04947.03255-.095.0625-.14322.09635h-.00131c-.09765.06511-.194.13021-.29036.19532l-.0013.0013c-.04948.03255-.09506.0638-.14323.09635l-.00261.0013q-2.10937,1.42383-4.19922,2.8724l-.0013.0013q-.65039.44922-1.29557.901c-.57292.401-1.14844.80469-1.71745,1.20834l-.01041.00781c-.14063.099-.28126.19792-.42058.29688l-.00781.0052-.42057.29818-.00912.00781c-.04557.03125-.08984.0625-.13411.09506l-.00521.0039c-.09245.06511-.1849.13151-.27734.19662l-.01563.01171c-.04427.03125-.08594.0612-.13021.09245l-.00521.00391c-.09244.06641-.18359.13021-.276.19661l-.01823.01433c-.04557.03125-.08593.06119-.13021.09244l-.0026.00131c-.09245.0664-.1862.13411-.27865.19922l-.01432.01041c-.13672.09766-.276.19792-.41276.29688l-.01432.01041c-.13672.09766-.276.19792-.41146.29558l-.01562.01172c-.04167.02994-.08594.06119-.12761.09114l-.00911.00651c-.04688.03516-.09115.06641-.13933.10156-.04427.03125-.08854.0625-.13281.09506l-.01953.01432c-.04427.03255-.08594.0625-.13021.09375l-.0026.0026c-.09115.06511-.1836.13282-.276.19922l-.01433.01042c-.13541.099-.276.20052-.41146.29948l-.013.00911c-.04427.03125-.08724.0625-.13151.095l-.00521.00391c-.09114.06641-.18489.13412-.276.20052l-.01172.00912c-.13541.09765-.27864.20182-.41406.30078l-.00911.00781c-.13542.099-.27474.20052-.41016.29948l-.01823.013c-.13542.099-.27213.19922-.40755.29818l-.01432.01172c-.04427.03125-.08724.0638-.13151.09505l-.00261.0026c-.04818.03516-.09375.069-.14062.10287v.0013c-.04427.03125-.08724.0625-.13151.09505l-.01953.01563c-.04167.02994-.08334.05989-.1237.09114l-.00912.00651c-.09114.06641-.181.13281-.27213.20052l-.01563.01042c-.13411.10026-.27474.20312-.40885.30208l-.01042.00782c-.13541.10026-.27734.20572-.41146.30468l-.01041.00782-.41016.30468-.01172.00782c-.13672.10286-.27344.20442-.41146.306l-.00781.00651c-.09245.069-.17969.13411-.27344.20442l-.00781.00521c-.04167.03125-.08724.06511-.1276.095l-.013.01042c-.09115.06771-.1836.13672-.27474.20443-.043.03255-.08464.0638-.12891.09635l-.01953.01563c-.13672.10156-.26953.20052-.40625.30338l-.00781.00651c-.09245.069-.17969.13412-.27214.20443l-.01042.00781c-.04036.02995-.08593.0638-.1263.095l-.01041.00782c-.09115.0677-.1823.13671-.27214.20442l-.00781.00651c-.04167.03-.08464.0625-.125.09375l-.01563.01172c-.09114.06771-.17838.13412-.26823.20183l-.01172.00911c-.04166.03125-.07942.0599-.11979.09115-.00521.0026-.01692.01171-.02083.01432-.08984.069-.17578.13281-.26563.20182l-.01171.00912-.11719.08854a.29859.29859,0,0,0-.02474.01823c-.08594.0651-.17318.13151-.26042.19661l-.02083.01693-.11328.08594-.01953.01562c-.04427.03255-.08594.0651-.13021.09766-.04688.03515-.08854.06771-.13542.10286l-.01172.00912c-.03646.02864-.07942.06119-.11719.08984l-.02473.01823c-.04037.03-.082.0625-.1224.09245l-.00651.00521c-.043.03385-.08464.0651-.12891.099l-.026.01953c-.03516.02735-.06771.05209-.10286.07813l-.03125.02474-.11979.09115-.00652.0052c-.043.03256-.08463.06381-.1276.09766l-.02865.02083c-.03385.026-.0651.04948-.099.07683-.013.00911-.02344.01692-.03646.02734-.03386.026-.07162.05469-.10677.08073l-.01953.01562c-.043.03256-.07943.0612-.1224.09375-.013.01042-.02214.01693-.03516.026-.03125.02474-.0625.04817-.09375.07291-.013.01042-.02343.01823-.03645.02735-.03516.02734-.07032.05468-.10417.08073l-.02214.01692c-.04036.03125-.08073.0612-.12109.09245-.01172.00911-.026.02083-.03906.03l-.08985.069c-.013.00911-.02734.02083-.04036.03125-.03646.02864-.07422.05729-.112.08594l-.00911.00781c-.04428.03255-.082.0612-.125.09505l-.03645.02865c-.02865.02213-.0599.04557-.08854.06771-.013.00911-.03126.02473-.04428.03385l-.09765.07552-.02474.01823-.11979.09245a.47877.47877,0,0,1-.04037.03125l-.08984.069c-.013.01041-.02344.01953-.03646.02864-.04036.03125-.07943.0612-.11849.09245l-.00521.00261c-.04036.03125-.08073.0638-.12109.09375-.01693.01432-.026.02083-.04427.03385-.02865.02214-.05469.043-.08334.0651-.013.01042-.03125.02344-.04427.03386-.03385.02734-.0677.05338-.10286.07943-.00781.00781-.01042.00781-.01823.01562-.04037.03-.08073.0612-.11979.09245-.013.01041-.02865.02213-.04167.03125-.02864.02213-.05729.04557-.08594.06771-.013.01041-.02864.02213-.04166.03125-.03776.02994-.07422.05859-.112.08724l-.01042.00781-.12239.09635c-.013.00912-.02474.01823-.03776.02865l-.08594.0664-.043.03386c-.03776.02864-.07292.056-.10938.08463l-.013.01042c-.04036.03125-.082.0638-.12109.09375-.013.01042-.026.01953-.03776.02995-.02865.02213-.0625.04818-.09115.07161-.013.00912-.02343.01693-.03646.02735-.03385.026-.07291.05729-.10677.08333l-.02474.01953c-.03776.02865-.07552.0586-.112.08724l-.04427.03386c-.02864.02213-.05468.043-.08333.0651a.47654.47654,0,0,1-.04036.03125c-.07943.0625-.16537.12891-.2448.19141-.00911.00651-.02994.02343-.03776.02994l-.08593.06641c-.01693.01432-.026.02083-.043.03516-.03516.026-.06641.05078-.10026.07812-.013.01042-.02474.01953-.03776.02865-.03386.02734-.06641.05208-.10026.07812-.01693.01433-.03386.02735-.05209.04167-.02213.01693-.04687.03646-.069.05469-.01692.013-.03646.02864-.05468.04166l-.09245.07292c-.01693.013-.02735.02083-.04427.03516-.03386.026-.0625.04817-.09636.07552-.01692.013-.03255.026-.05078.03906-.02213.01823-.05078.04036-.07292.05859l-.04947.03776-.09245.07292-.05078.03906c-.03125.02474-.06381.05078-.09375.07552-.01823.013-.02865.02214-.04558.03516-.026.02083-.05208.04167-.07812.0612-.01693.013-.03.02474-.04688.03776-.03125.02474-.06119.04687-.09244.07161-.01693.01433-.04037.03255-.0573.04558-.02864.02213-.05729.04557-.08593.0677-.01693.013-.03386.026-.05078.04037-.02214.01693-.04948.03906-.07162.056-.01693.01432-.03516.02864-.05208.04166-.03125.02474-.0586.04558-.08985.07032-.01692.013-.04036.03255-.05729.04557-.02734.02214-.056.04427-.08463.06641-.01693.013-.03646.02994-.05339.043-.02344.01823-.04687.03646-.069.05469l-.05208.04037c-.02865.02343-.05729.04557-.08594.06771-.02083.01692-.04818.03906-.069.05468-.02474.02084-.05078.04167-.07682.0612-.01693.013-.03776.02995-.05469.04427-.02214.01693-.043.03386-.06641.05208-.01692.013-.04036.03126-.05729.04558-.02213.01692-.04948.03906-.07161.056-.02995.02343-.0573.04557-.08594.069-.02344.01823-.04557.03646-.06771.05338s-.03906.03125-.0599.04818c-.02343.01823-.03906.03-.06119.04818l-.0586.04557c-.02734.02214-.056.04557-.08463.06771l-.06771.05469c-.026.01953-.05078.04036-.07682.05989-.01693.013-.03516.02865-.05209.043-.02343.01693-.04557.03516-.06771.05339-.01692.013-.04166.03255-.05729.04557-.02864.02213-.05729.04557-.08593.06771l-.07032.056c-.02213.01823-.04427.03515-.0664.05338-.02214.01693-.043.03386-.06381.05078l-.05859.04688c-.01693.013-.043.03385-.0599.04818-.02213.01692-.03906.03125-.0625.04947-.03776.02995-.07812.06251-.11588.09245-.01172.00912-.03.02344-.04036.03255-.02214.01693-.05079.04037-.07162.0573l-.04948.03906-.0651.05208c-.02735.02214-.05209.04167-.08073.0638-.02474.02084-.056.04558-.08073.06511l-.0599.04818c-.02083.01692-.043.03385-.0638.05078l-.05859.04687c-.01693.01432-.043.03516-.0599.04818-.02213.01823-.04036.03255-.0625.04948-.03776.03125-.0651.05338-.10417.08333l-.056.04557-.0625.05079c-.01953.01562-.03385.026-.05338.043l-.069.05469-.04037.03255c-.03776.02995-.082.06641-.11979.09636-.01953.01562-.03646.02995-.05729.04557l-.06641.05339-.04687.03776c-.02474.01953-.04687.03776-.07161.05859l-.03125.02474c-.04558.03646-.09115.07292-.138.11068-.013.01172-.03125.026-.04557.03776-.02083.01562-.04818.03776-.069.05469l-.04818.03906c-.02474.01953-.04427.03515-.069.056l-.03515.02734c-.04558.03776-.08985.07292-.13542.11068-.01432.01041-.03125.02474-.04557.03515-.02084.01693-.04688.03907-.06771.056-.01432.01042-.03385.02735-.04818.03776-.02474.02084-.04427.03646-.07031.0573-.01953.01562-.03776.03125-.05729.04687-.03776.02995-.069.05469-.10547.08464-.01693.01432-.03385.02864-.05078.04166-.02084.01693-.04948.03907-.07031.056-.01433.01172-.03125.026-.04558.03646-.02474.02083-.04817.04037-.07291.0599l-.01172.01041c-.0586.04688-.11328.08985-.17058.138l-.02473.01954-.07813.0638c-.01432.01041-.02474.01953-.03906.03125-.02474.01953-.05078.04166-.07683.0612l-.00911.00911c-.05469.043-.11328.09115-.16667.13411l-.03255.026c-.02474.02083-.04948.04036-.07422.06119-.01432.01042-.02864.02344-.043.03386-.02474.02083-.04817.03906-.07291.05989l-.02344.01954c-.04948.04036-.10156.08333-.15234.12369l-.03256.02735c-.026.01953-.04948.03906-.07422.05989-.01432.01042-.03255.026-.04687.03776-.02474.01954-.043.03516-.06771.056l-.03515.02735c-.04558.03776-.08985.07422-.13542.11067l-.04427.03646-.0638.05209c-.01693.013-.03386.02734-.05079.04166-.08333.06771-.16927.138-.2513.20573-.01172.00912-.01432.01172-.026.01953-.02474.02084-.05078.04167-.07552.0625-.013.01172-.03125.026-.04557.03776-.082.06771-.16667.13542-.25.20313-.01042.00911-.01693.01562-.02865.02474l-.07031.05729c-.01693.01432-.03125.02474-.04688.03906-.11979.09766-.24349.19922-.36328.29688l-.01823.01562c-.09505.07813-.18489.15235-.27994.23047l-.00782.00521c-.02864.02474-.056.04687-.08593.07031-.01042.00912-.01693.01563-.02865.02474-.08984.07422-.17057.14063-.26172.21485-.00781.00651-.01432.013-.02344.01953-.02864.02343-.05468.04557-.08333.069-.00911.00651-.01563.013-.02344.01953-.09114.07422-.18229.14974-.27213.224l-.01433.01171-.082.06771c-.01041.00912-.02083.01693-.03255.026-.08594.07161-.181.151-.26693.22135l-.01172.00911c-.02864.02474-.05729.04818-.08593.07162-.00781.00651-.01823.01562-.02735.02213-.08984.07552-.17317.14323-.263.21875a.27316.27316,0,0,0-.02213.01823c-.02474.02084-.05209.043-.07683.06381l-.03255.02734c-.08984.07422-.18359.15234-.27343.22656l-.00391.00261c-.03255.02734-.0599.05078-.09375.07812l-.00912.00781c-.12239.10157-.25651.21354-.3789.31511l-.01953.01562c-.224.1875-.44792.3737-.67188.5612l-.0026.0013-.09245.07813-.01042.00781c-.52083.4362-1.03515.86589-1.55208,1.30208l-.0013.00131A653.11309,653.11309,0,0,0,65.28776,315.53c-.01823.01823-.03646.03906-.05469.05729l-.02083.02344-.15234.16406-.013.01432L65,315.83984l-.02344.02474c-.02734.02995-.04948.05339-.07552.082l-.02734.02865-.043.04688c-.00651.00781-.01563.01692-.02214.02343-.01432.01563-.02734.03125-.04166.04688a.23342.23342,0,0,0-.02474.026c-.04948.05339-.09375.10026-.14193.15234l-.02734.02995-.043.04688-.01953.02083-.04427.04818-.0599.0638-.03776.04167-.02734.02994-.03776.04167c-.01433.01563-.02995.03125-.04428.04687-.00781.00782-.01432.01563-.02083.02344-.02344.02474-.04557.04948-.069.07422l-.01693.01823c-.01823.01953-.03776.04167-.056.0612l-.01562.01693-.05859.0625-.01563.01692c-.02083.02214-.04427.04818-.0651.07031-.00651.00782-.01433.01693-.02214.02474-.01693.01954-.03516.03907-.05338.0573a.23.23,0,0,1-.01693.01953c-.01953.02083-.04167.04557-.0612.0651l-.00911.01042c-.02344.026-.04558.04948-.069.07552l-.01954.02083c-.01562.01693-.03385.03776-.05078.05469-.00651.00781-.01432.01693-.02213.02474-.01823.01953-.03776.04036-.056.0612l-.01172.01172c-.02344.026-.04427.04817-.06771.07422l-.01823.01953c-.02213.02343-.04036.043-.0625.0677l-.0026.00391c-.05078.05469-.099.10677-.14844.16146l-.00391.00391c-.02474.026-.04948.05338-.07291.07942l-.00131.0013c-.125.13672-.25.27214-.375.40886A10.66622,10.66622,0,1,0,78.51693,332.651c22.86458-24.92578,68.46354-70.64323,117.91015-97.95573a9.77466,9.77466,0,0,0,9.67058-9.905C206.09766,219.29219,200.2111,208.68051,187.19141,215.42708Z" style="fill:#8ccd5b"/><path d="M170.66667,341.33333s45.65-83.50989,123.19135-125.90553a17.78882,17.78882,0,0,1,20.94371,3.1407l0,0a17.54511,17.54511,0,0,1,.7064,24.1863C301.34466,258.44475,277.33333,298.66667,256,341.33333Z" style="fill:#9fe27c"/><path d="M293.85807,215.42708c-.05221.02594-.10286.056-.15364.08464l-.04037.02213c-.04817.026-.10026.05469-.14844.082l-.02473.013c-.04167.02343-.08855.04817-.13021.07161l-.04427.02474c-.04688.02474-.09766.05339-.14453.07943l-.03646.01953c-.04037.02213-.082.04557-.1211.06771l-.043.02213c-.04817.02735-.095.05339-.14322.08073l-.043.02344c-.04037.02213-.07552.04167-.11459.0638l-.04557.02474c-.04688.026-.09245.05078-.13932.07813l-.05209.02734c-.03515.02083-.069.03906-.10547.05859l-.04817.02735c-.04557.026-.09115.05078-.13542.07552-.01953.01172-.03906.02213-.05859.03255-.03386.01953-.06641.03776-.10026.056-.01953.01042-.03256.01823-.05078.02865-.04427.02473-.08985.05078-.13282.07421-.02474.01433-.03906.02214-.0625.03516-.03255.01823-.0638.03646-.09635.05469-.02344.013-.05208.02864-.07682.04166-.03516.02084-.069.04037-.10547.0599l-.06511.03646-.10026.05729c-.02864.01563-.05208.02865-.08073.04557l-.095.05339-.069.03906c-.03385.01953-.0664.03646-.10026.056-.02734.01563-.0599.03385-.08854.05078-.026.01433-.05469.03125-.082.04688l-.07031.03906-.11719.06641c-.02865.01562-.04688.026-.07422.043-.02734.01433-.05339.03-.07943.04428-.02344.01432-.04818.02734-.07161.04166-.04167.02344-.082.04558-.1224.069-.02344.01433-.04818.02865-.07161.04167-.026.01432-.04818.02734-.07292.04167-.02734.01562-.04687.026-.07422.04166-.04036.02344-.07943.04558-.11849.06771-.02864.01693-.05078.02995-.07943.04557-.02343.013-.04166.02474-.0651.03776-.03776.02084-.08333.04818-.12109.069-.02474.01433-.04818.02865-.07422.043-.02735.01563-.05339.03125-.082.04688-.01953.01172-.04037.02344-.0599.03385-.04687.02735-.0925.05469-.13932.08073-.01953.01172-.03516.02083-.05469.03125-.02734.01693-.0599.03516-.08854.05208l-.04818.02735c-.056.03255-.10156.05859-.15625.09114l-.04427.02474c-.02734.01693-.0625.03646-.09114.05339l-.04558.026c-.05078.02995-.10286.0599-.15364.08984-.01693.00912-.03125.01693-.04688.02735-.02864.01562-.0638.03646-.09114.05208a.40908.40908,0,0,1-.04037.02344c-.056.03255-.10677.0625-.16276.095-.01432.00781-.02865.01693-.04167.02474-.03255.01953-.0625.03646-.095.05469l-.01953.01172c-.0612.03515-.11979.07031-.17969.10547l-.043.02474c-.10156.05989-.194.11328-.29557.17317-.01432.00912-.02474.01433-.03776.02344-.10286.0599-.20052.11719-.30208.17708l-.02865.01693c-.10286.0599-.20312.11979-.30469.17969l-.03125.01953c-.0651.03776-.12239.07161-.1875.11068l-.01692.01041c-.03255.01823-.06771.03907-.099.0586l-.02865.01692c-.0638.03776-.1276.07553-.19271.11459l-.01171.00651c-.03646.02213-.06771.04166-.10547.0625l-.01042.00651c-.0638.03906-.138.08333-.20182.12109l-.01433.00912c-.10677.0625-.21223.1263-.3177.1901l-.01433.00781c-.11067.06641-.20963.12631-.319.19271l-.01172.00651c-.10937.06641-.21093.12761-.32031.194l-.00911.00521c-.10938.06641-.21354.12891-.32292.19531l-.00391.00261c-6.51562,3.95312-12.78385,8.17838-18.79947,12.59505l-.00261.0026c-.57422.42188-1.14193.84115-1.71224,1.26693l-.00521.00391c-.10156.07552-.19531.14583-.29557.22135l-.00781.00521c-.10026.07552-.19271.14453-.293.22l-.00912.00651c-.10026.07552-.1914.14323-.29166.21875l-.01172.00912c-.09635.07291-.194.14583-.29037.21875l-.00781.00651c-.06771.05078-.1263.095-.19271.14453l-.0026.0026c-.09505.07162-.19531.14714-.29036.22l-.01172.00912c-.09506.07161-.1862.14193-.28256.21354l-.02083.01693c-.09115.069-.1875.14323-.27864.21224l-.02084.01562c-.09114.069-.1862.14193-.27734.21094l-.02474.01953c-.09115.069-.18229.13932-.27344.20964-.00911.00651-.01823.013-.02734.02083-.0625.04687-.11589.08854-.17839.13672l-.00521.00391-.08593.0664c-.01172.00781-.02214.01693-.03386.02474-.05338.04167-.10807.08464-.16276.1263l-.01562.01172c-.03.02214-.0599.04557-.08855.06771-.00911.00781-.01953.01563-.02864.02214-.04948.03906-.10807.08333-.15755.12239-.00912.00651-.01693.01172-.026.01953-.03256.026-.05469.04167-.08724.06771l-.02474.01823c-.04948.03906-.10678.08333-.155.12109l-.03255.02474c-.02865.02214-.05469.043-.08334.06511-.01172.00911-.02344.01692-.03385.026-.04948.03776-.08985.07031-.13932.10807l-.04818.03646c-.02865.02214-.04688.03776-.07552.0599-.01693.01171-.03255.02474-.04818.03645-.04036.03256-.08463.06641-.125.09766-.01693.013-.03255.026-.05078.03906-.02344.01953-.04948.03907-.07422.0573-.01693.01432-.03385.02734-.05078.04036-.04167.03255-.082.0638-.1224.09635l-.04948.03776c-.04557.03516-.08463.06641-.1302.10157-.01433.01041-.03.02343-.043.03385l-.07422.05859c-.01693.013-.03646.02865-.05469.04167-.03646.02865-.07292.0586-.11068.08724-.01823.01432-.04036.03255-.05989.04688-.02084.01562-.05078.04036-.07162.056-.01692.01432-.03776.02994-.05468.043-.03646.02865-.07683.0599-.11329.08985-.01953.01432-.03906.02995-.05729.04427l-.07031.056c-.02083.01562-.04167.03255-.0612.04818-.03255.026-.06771.05338-.10156.07942-.02214.01823-.04427.03516-.06771.05339-.02474.01953-.03906.03125-.0638.04948-.02474.02083-.05339.043-.07813.0625-.02864.02343-.05338.04166-.082.0651l-.07552.0599c-.02083.01562-.03776.02995-.05859.04557-.03125.02474-.0599.04687-.08985.07161l-.07682.0599c-.02344.01823-.04818.03776-.07161.05729l-.05729.04558-.11068.08723-.05339.043c-.02734.02084-.05208.04167-.07812.0625l-.05209.04037c-.03645.02995-.07552.0612-.11328.08984l-.05078.04167c-.02734.02083-.05338.04166-.07942.0625l-.05209.04166c-.03776.02995-.07682.0612-.11328.09115l-.04948.03906c-.02864.02344-.05729.04558-.08724.069l-.043.03516c-.04036.03125-.07682.0612-.11588.09245-.01693.013-.03255.026-.04818.03776l-.09635.07682-.03386.02865c-.03906.02995-.08073.0638-.11849.095l-.04557.03516-.10547.08593-.03646.02865c-.03515.02864-.07031.05729-.10677.08594-.01562.013-.02995.02343-.04557.03645l-.11979.09636-.02735.02213-.10416.08464-.03907.03125c-.04036.03255-.08333.06771-.12369.10026-.01172.00911-.01563.013-.02865.02214-.03646.02994-.069.056-.10547.08593l-.03385.02735c-.04167.03385-.08464.069-.1263.10156l-.026.02213c-.03776.03-.07421.0599-.112.08985-.01171.01041-.01562.013-.02734.02213l-.1289.10547-.02474.01953c-.04037.03256-.07683.0625-.11719.09506l-.02084.01692c-.04427.03646-.08463.069-.1289.10547-.00912.00651-.01953.01563-.02735.02214-.04166.03385-.08463.069-.125.10156l-.00781.00651c-.04557.03776-.08854.07161-.13411.10937-.00782.00652-.01693.01433-.026.02084-.08985.07292-.17709.14453-.26693.21875l-.02344.01953c-.08854.07161-.181.14714-.26953.22-.00781.00651-.013.01172-.02214.01823-.04557.03776-.08984.07292-.13541.11068l-.0013.0026c-.04558.03646-.08855.07292-.13542.10938l-.01693.01562c-.04557.03646-.09114.07422-.13672.112l-.00651.00521-.13151.10807-.01562.013-.13933.11589h-.0013c-.04817.04036-.09505.07812-.14323.11849l-.0026.0026c-.04818.04037-.095.07813-.14323.11849l-.00391.00261c-.09635.08073-.1901.15885-.28776.23828l-.0026.0026c-.09636.08073-.19141.15886-.28776.23959l-.0013.0013c-.09636.08073-.19141.16015-.28907.23958l-.0013.0013A339.071,339.071,0,0,0,219.487,275.32292a10.66646,10.66646,0,1,0,15.71354,14.42838c21.69141-23.62239,44.58073-42.17057,68.05078-55.14323A10.80089,10.80089,0,0,0,312.79427,224C312.79427,218.667,306.539,209.12832,293.85807,215.42708Z" style="fill:#8ccd5b"/><path d="M298.66667,341.33333s22.58033-75.72682,74.86752-104.108a21.63265,21.63265,0,0,1,25.50986,3.81263l0,0a21.47088,21.47088,0,0,1,4.02193,24.78427S362.66667,320,362.66667,341.33333Z" style="fill:#9fe27c"/><path d="M383.65674,234.6665h-.00082a21.54772,21.54772,0,0,0-8.01141,1.56092c-26.885,10.71613-52.13078,48.76082-63.82452,72.76021a10.66661,10.66661,0,1,0,19.15625,9.38851c10.28922-20.99382,27.79052-48.86182,52.66406-62.37533l.01693-.001a11.269,11.269,0,0,0,10.65494-11.15235,10.08023,10.08023,0,0,0-8.73225-10.09521q-.9585-.08545-1.92318-.08578Z" style="fill:#8ccd5b"/><path d="M195.46077,192h-.00032a38.66978,38.66978,0,0,0-18.50326,4.70947c-31.65169,17.3055-65.01334,42.74658-99.158,75.61638a10.66674,10.66674,0,0,0,14.76921,15.39436c6.0262-5.80192,12.47461-11.78971,19.27539-17.80859l.00065-.00065.1683-.14876.0026-.00228.1665-.1473.00537-.00472.16569-.14648.00359-.0031c.16634-.14681.33056-.29166.49723-.43847l.01823-.01612c.04655-.04085.10351-.091.1499-.132l.0262-.02294c.04639-.041.09913-.08724.14567-.12826l.028-.02458.14681-.12907.0262-.02311.14763-.12972.02344-.02051.13948-.12239.02165-.01888.14127-.124.03695-.03239.1403-.12289.035-.03076.13444-.11768.04574-.04.13428-.11752.03694-.03222.125-.10938.05339-.04671.1206-.10531.0267-.02327c.047-.041.08935-.07813.13639-.119l.04688-.041.12581-.1097.05143-.04492.12-.10449.06608-.05745.11295-.09847.0599-.05225.09424-.08187.09033-.07861.077-.0669.09961-.08659.076-.06608.09668-.08382.089-.07731.05843-.05078.124-.10742.0568-.04932.11914-.10319.06218-.05387.09082-.07862.09537-.08252.0669-.05794.10709-.09261.07552-.06527.0778-.06722c.03174-.02734.069-.05973.10075-.08691l.07276-.063.10254-.08838.083-.07161.08171-.07048.09489-.0817.07487-.06462.09961-.08577.08935-.077.08757-.07519.08056-.06934.09945-.08561.08285-.07113.07356-.06315.10612-.09131.07829-.06706.10514-.09033.07959-.06819.0433-.03711.152-.13037.02669-.02279.14795-.12663.04411-.03776.13248-.11344.057-.04867.07715-.06592.10238-.08756.09049-.07731.02246-.01921c.05322-.04525.1084-.09245.16162-.13786l.03776-.03222.15528-.13233.02213-.01888c.05518-.047.10693-.091.162-.138l.03076-.0262c.05892-.05013.11947-.10173.17839-.1517l.00211-.002c.1582-.1346.31852-.27067.47705-.40527l.01791-.01514.17008-.14437.02116-.0179.16748-.14193.0223-.01888.181-.15332.00488-.00407c.22363-.18929.44938-.38.67367-.56917l.00732-.00635c.12419-.10465.24788-.209.37223-.31364l.01677-.01416a456.13774,456.13774,0,0,1,40.1219-30.35823l.00407-.00261q.48878-.32641.97754-.65055l.01319-.00879c.06689-.04443.13671-.09066.20377-.13493l.01253-.00846.21224-.1403.00245-.00163c.18017-.11914.36588-.2417.54622-.36051l.00586-.00375c.06917-.04557.13753-.09065.20687-.13606l.01953-.013.1984-.1302.01677-.01107c.06706-.04411.13655-.08968.20377-.13363l.01205-.008q.271-.17749.54166-.35433l.0184-.012c.06526-.04248.13167-.08577.19677-.12841l.0236-.0153.18832-.12273.03076-.02c.06738-.04378.13005-.08463.19743-.12825l.013-.00846q.27149-.17652.54281-.35205l.02034-.01319.18929-.12239.03988-.02588.16959-.10938.04606-.02978.16846-.10856.04557-.0293.17855-.11491.03239-.02083c.10759-.06918.21143-.13591.319-.20492l.04053-.02588.17122-.10986.0459-.0293.16765-.10742.0472-.03011.15787-.10075.05876-.0376.15462-.09863.05534-.03516.102-.0651.06966-.04427.14372-.09147.04981-.03158.16129-.10237.05827-.03711.15055-.09538.06055-.03841.15348-.09717.05811-.03678.13981-.08822.07357-.04655.0957-.06038.11849-.07471.09342-.05892.07292-.0459.14063-.08838.06656-.042.14486-.09082.06624-.04167.14421-.09049.06738-.04216.1333-.08349.07959-.04981.09571-.05973c.03694-.02328.08024-.05013.11718-.07324l.09555-.05957.07584-.04737.13509-.08431.06934-.04313c.04671-.02913.09424-.05875.14111-.08773l.07064-.04394.13818-.08594.07357-.04573.11524-.07129.09814-.06088.08952-.0555.124-.07682.089-.055.09164-.05664.11914-.07341.08463-.05224.12549-.07732.08317-.05127.12044-.074.09082-.05583.09571-.05875.11523-.07081.0874-.05354.12484-.0765.08691-.05322.10661-.06527.10417-.06364.09228-.05648.11426-.06966.09457-.05778.10774-.06559.10417-.06348.07552-.0459.13574-.08252.07715-.04671.13591-.08252.0734-.04443.13835-.084.07471-.04508.10758-.0651.10124-.0612.10237-.06185.10222-.06169.1084-.06526.07161-.04314.14258-.08577.069-.0415.14193-.08529.07112-.04264.14128-.0848.06868-.04118.1263-.07568.07943-.04737.11654-.06966.08756-.05225.119-.07112.0695-.04134.14242-.0848.069-.04118.14371-.08545.06918-.041.14388-.08545.06526-.03874.13623-.08073.06836-.04053.12712-.075.07357-.04362.13281-.07829.06071-.036.14892-.08772.0643-.03793.14908-.08773.0625-.03678.147-.08626.06722-.03939.13118-.077.07617-.04459.12207-.07145.07715-.04509.13363-.07812.05664-.033c.05159-.03012.10221-.05974.15381-.08969l.06038-.03531.14958-.08708.06347-.03695.14893-.08642.06266-.03646.15137-.08789.05111-.02963.14046-.08121.05778-.03353.14681-.0848.05208-.03027.15642-.09017.05761-.03321.15446-.089.05746-.033.15739-.09049.05143-.02946c.05159-.02979.10954-.063.16129-.09261l.04834-.02767c.04688-.027.09327-.05339.1403-.0804l.05974-.03418.14583-.08334.05046-.02881.16048-.09163.05241-.03.16015-.09114.05143-.02946.16211-.09213.0472-.02685.16635-.0944.041-.02311.15332-.08692.04639-.02636.15885-.08969.04232-.02392c.05648-.03207.10742-.06071.1639-.09261l.05029-.02832.16309-.092.04883-.02751.16406-.09212.04557-.02555c.05648-.03191.11328-.06364.16992-.09538l.03435-.01937.16634-.0931.03109-.01741.16992-.09506.03548-.01985.175-.09766.03694-.02051.173-.09635.03922-.022.17285-.096.03842-.02132.17659-.098.02686-.01481.1831-.1014.01107-.00618.19027-.10515.01969-.0109.18327-.10107.03206-.01758c.06153-.034.11572-.06381.17725-.09766l.03564-.01953.1766-.09717.03336-.01823.182-.09977.02067-.01123c.06624-.0363.12809-.07031.19434-.10645h0a17.20246,17.20246,0,0,1,8.2692-2.0944A10.66667,10.66667,0,0,0,195.46077,192Z" style="fill:#215200"/><path d="M302.12744,192h-.00032a38.66978,38.66978,0,0,0-18.50326,4.70947c-34.20687,18.70264-66.51546,46.60108-96.02865,82.9209a10.66668,10.66668,0,1,0,16.55648,13.45345c4.83643-5.95182,10.1683-12.16422,15.9725-18.45345l.006-.00651c.04785-.05176.09635-.10449.14437-.15625l.00781-.00846.06673-.07227.01872-.02018.0555-.06006.01937-.02083.05745-.06218.01335-.01448.06055-.06543.02555-.02751.0472-.05094.04915-.0529.02393-.026.05924-.06364.01368-.015.06738-.07259.007-.00748.0612-.06592.01481-.016.05338-.05746.02523-.027.035-.03776.04281-.0459.03988-.043.03206-.03451.04622-.04964.02865-.0306.04736-.05094.02881-.03093.04362-.04687.03158-.03386.04736-.05094.02832-.03011.03988-.043.03938-.042.03093-.0332.04915-.05258.01937-.02083.05485-.05876.03093-.033.04052-.04329.03858-.04134.03515-.0376.04965-.0529.02132-.02278.05566-.05941.019-.02051.06071-.06461.01384-.01482.05794-.06184.0197-.02116.057-.06071.01921-.02035.05289-.05631.02393-.02556.06169-.06559.007-.00749.06478-.06884.01465-.01579.06169-.06543.01465-.01563.06006-.0638.01529-.01627.06527-.06934.00733-.00781.06526-.06918.01465-.01562.06152-.06527.01547-.01627.0581-.06169.01921-.02051.06185-.06543.00895-.0096.06689-.0708.009-.00944.14534-.15381.00407-.00407c.09993-.10579.20133-.21289.30143-.31852l.00391-.00407c.20036-.21126.40771-.42952.60921-.64111l.00488-.00505q1.22364-1.28418,2.474-2.57129l.00993-.01025c5.30664-5.46045,10.9598-10.92985,16.94987-16.29476l.0026-.00244.08334-.07455.00667-.006.17269-.15446.00342-.00309.08545-.07617.00358-.00342.08154-.07259.00977-.00879.16975-.15137.00733-.00651.08463-.07536.00131-.00114.08658-.077.00326-.00309c.17708-.15739.35563-.31592.5332-.47315h0l.089-.07877.001-.001.083-.07341.01465-.01285c.05289-.04688.11425-.10124.16731-.148l.00847-.00749.08056-.07113.01123-.00992.075-.06609.0192-.01709.07634-.06722.0013-.00113.08236-.07243.02343-.02067.0695-.0612.01367-.012.07487-.06575.01693-.015.16569-.14534.0057-.00505c.6844-.60058,1.37923-1.20507,2.0721-1.8024l.00358-.0031.07992-.06884.01285-.01107.07732-.06657.01367-.01188.08121-.06983.00944-.00814.077-.06624.01563-.01351.07568-.06478.01579-.01367.07129-.0612.02164-.01855.06983-.06006.022-.01872.071-.06087.01953-.01676.0752-.06429.01563-.01351.07519-.06429.01709-.01449.07341-.06282.01888-.01628.0721-.06152.02018-.01726.06755-.05761.0275-.02344.06234-.05322.02962-.02523.06413-.05469.02718-.02311.06494-.05534.028-.02393.06071-.05159.03353-.02848.05924-.05046.03239-.02751.0599-.05094.03287-.02783.05909-.05013.03385-.02881.0568-.04818.03793-.03206.05436-.04623.03711-.03141.05631-.04752.03565-.03028.05761-.04883.03516-.02978.05729-.04834.03532-.02979.05713-.04834.03662-.03092.055-.04655.03809-.03206.05745-.04851.03158-.02669.06071-.05111.03532-.02962.056-.04736.03825-.03207.054-.04557.03972-.03336.0542-.04558.03841-.03222.05322-.04476.04232-.03548.0511-.043.04265-.03581.0498-.04167.04265-.0358.05159-.0433.04248-.03548.05062-.04248.04053-.03386.05436-.04557.03581-.03.05826-.04866.0337-.02816.05989-.05013.0332-.02767.06039-.05029.03516-.02946.05631-.04688.04557-.03808.04688-.03906.04606-.03825.04883-.04069.04492-.03744.04818-.04.04492-.03743.0498-.04134.04737-.03939.04476-.03711.05843-.0485.03483-.029.05892-.04883.036-.02995.05289-.04378.04167-.03451.05827-.04834.035-.02881.06722-.05566.027-.0223.06169-.05111.03353-.02767.05159-.04264.04281-.03532c.12467-.103.2526-.20833.3776-.3112l.03-.02457.06478-.05339.03564-.02929.05843-.048.03793-.03125.05745-.047.0262-.02148.07146-.05876.00846-.00683.0848-.0695.02327-.01921.07243-.05924.02523-.02067.06706-.05485.03873-.03158.05713-.04687.03011-.02442.06706-.05485.0236-.01937.07113-.05794.02669-.02181.0682-.05566.02767-.02263.06819-.0555.02539-.02067.07032-.05729.026-.02116.068-.05534.03011-.02441.06559-.05339.029-.0236.067-.05436.02735-.0223.06884-.05583.026-.021.06933-.05632.026-.02116.07048-.057.02588-.021.06836-.05534.02718-.022.07145-.05778.02181-.01758.07292-.05892.02376-.0192.0734-.05925.021-.01692.07585-.06136.01888-.015.078-.063.01741-.014.08041-.06478.01351-.01091.08284-.06657.014-.01123.08122-.06526.01611-.013.08171-.0656.01367-.01106.07812-.06267.02311-.01855.07178-.05746.02539-.02034.07324-.05876.02051-.01644.078-.06233.01758-.014.07894-.06315.01774-.01416.07943-.06364.0166-.013.0822-.06576.01285-.01025.08789-.07.00668-.00537.08886-.071.00912-.00717.08789-.07.009-.00716.08724-.06934.01025-.00814.08741-.0695.00927-.00732.0879-.06982.00927-.00733.08871-.07047.008-.00619.09326-.07406.00228-.00179a261.7165,261.7165,0,0,1,31.03223-21.25618l.00781-.00456.106-.06152.00032-.00016.11084-.06413.00147-.001c.07324-.04248.14779-.08561.22119-.12793l.00309-.00179.10775-.06217.00521-.00293.10433-.06022.01107-.00635.10042-.05778.0109-.00635.09961-.05729.01384-.008.09782-.05615.01351-.00781.098-.05615.014-.008.09977-.05713.00993-.00569.09814-.05616.01774-.01009.0957-.05485.01433-.00814.0957-.05452.01807-.01025.09537-.05453.015-.00846.09521-.0542.01872-.01058.09212-.05241.02035-.01156.08919-.05061.02507-.01416.09-.05111.01888-.01074.09164-.05192.02213-.01237.09115-.0516.02-.01139.09033-.051.02279-.01285.09163-.05176.01937-.01091.08984-.05062.02442-.01367.08821-.04964.02328-.01318.08756-.04916.02572-.01448.083-.04655.03141-.01758.07764-.04346.03483-.01953.08154-.04573.02946-.01644.08122-.04541.03157-.01758.08171-.04557.03092-.01726.08366-.04671.02751-.0153.08724-.0485.02522-.01416.08057-.04476.03418-.019.07178-.03972.04215-.02343.06885-.03809.04313-.02409.06934-.03841.04362-.02409.068-.0376.04427-.02441.0695-.03857.04313-.02377.07552-.04166.036-.0197.08236-.04541.03027-.01676.07878-.0433.03467-.019.07308-.04.04-.02213.10107-.05551.01042-.00553.09961-.05469.014-.00765.11312-.06185a17.20253,17.20253,0,0,1,8.26921-2.0944A10.66667,10.66667,0,0,0,302.12744,192Z" style="fill:#215200"/><path d="M383.65479,213.33317h-.00033a42.67869,42.67869,0,0,0-20.29769,5.14307c-44.13639,23.95687-69.06429,74.34782-79.99495,102.25309a10.66669,10.66669,0,0,0,19.85009,7.81575c6.9847-17.83919,22.22429-50.653,47.11963-74.2277l.00521-.005c.06006-.057.12419-.11735.18441-.17416l.00049-.00065c.18847-.17773.3719-.34961.56152-.52636l.00163-.00163c.1237-.11524.251-.2334.37516-.34831l.00179-.00163c.06348-.05859.124-.11458.18766-.17317l.00082-.00082.1831-.16829.012-.01107c.05843-.05355.12142-.11133.18-.16471l.007-.00651c.0612-.05583.12321-.11247.18457-.16814l.00439-.00423c.06136-.05566.12305-.11181.18441-.16731l.00765-.00684c.06136-.05566.12223-.11068.1836-.16618l.00716-.00651q.09228-.08325.18473-.16634l.0057-.00521.187-.16781.00277-.00244.18831-.16829.00488-.00423c.06185-.05518.1263-.11263.18832-.16765l.0026-.00244.18962-.168.00374-.00325c.0944-.0835.19222-.16976.28711-.25309l.00016-.00017c.06494-.057.12809-.11246.1932-.16943l.00032-.00033.19157-.16731.00342-.00293c.0625-.05453.12907-.11231.19157-.16667l.00228-.00195c.06526-.05664.12484-.10824.19026-.16472l.0057-.005c.06543-.05648.12354-.10661.18913-.16293l.00618-.00553.18864-.16195.00716-.00618.18913-.16178.00635-.00538.18848-.16031.00879-.00749c.06315-.05371.12418-.10547.1875-.159l.0096-.008c.06055-.05127.12646-.1071.18717-.15821l.00944-.008c.06071-.05111.12728-.10694.188-.15788l.00944-.008c.06364-.05339.1237-.10368.18734-.15674l.01123-.00944.1862-.15511.01286-.01075c.0638-.05289.12174-.10107.1857-.154l.01254-.01041.18717-.15463.01042-.00862.189-.15528.01009-.0083.09115-.0747.00326-.00261.09456-.07747.0109-.00879.089-.07276.00586-.00455.09457-.077.00976-.00814.09066-.07356.00456-.00375.09554-.07731.00911-.00749.08887-.07177.008-.00635c.03352-.02734.0607-.04915.09456-.07634l.00944-.00764.08822-.07113.00862-.00684.09408-.07568.0109-.00863.08415-.06754.014-.01123.09244-.0739.01042-.0083.08545-.068.0127-.01025.09391-.07471.00814-.00635.08626-.06852.01432-.01139.0931-.0739.00879-.00683.08578-.06788.01481-.01171.09423-.07422.0044-.00358.08805-.06918.01693-.01334.09277-.07292.00635-.00488.08708-.0682.01709-.01335.0931-.07275.00439-.00342.08919-.06966.01612-.01237.0944-.07357.0013-.001.09082-.07048.01855-.01432c.06267-.04867.12191-.0944.18474-.1429l.02034-.01563c.06283-.0485.12224-.09424.18522-.14258l.01888-.01448.18571-.14242.01921-.01448c.063-.04834.12288-.09392.186-.14193l.01969-.015c.06038-.04589.12549-.09537.186-.14111l.0197-.015.08789-.06641.00537-.00407.09294-.07015.02-.01513.08593-.06462.00765-.00586.09294-.06966.02-.015.08268-.062.01188-.00879.09131-.06819.022-.01644.08171-.06087.01188-.00879.09245-.06885.01986-.01481.08121-.06022.01449-.01075.09228-.06819.02-.01481.07748-.05713.01937-.01432.09033-.06641.02132-.01579.07894-.05794.01644-.01221.09163-.06706.02116-.01546.0765-.05582.02083-.0153.08968-.06527.023-.01677.07487-.05436.02132-.01562.0905-.06559.02132-.01547.07585-.05485.022-.016.09033-.0651.021-.0153.07487-.05371.02474-.01791.08886-.0638.02279-.01627.07259-.05209.02555-.01839.08985-.06413.02034-.01448.07455-.05323.02653-.01888.09065-.06445.01416-.00993.08155-.05794.02278-.01611.09229-.06527.01416-.00993.08089-.05729.02458-.01725.09228-.06494.01156-.008.08236-.05794.02555-.01791.09212-.06461.00977-.00684.08626-.06006.02279-.016.09472-.06608.00147-.001.09342-.065.022-.01513.09505-.06592.00276-.00195.09229-.06381.02344-.01611.09228-.06364.00261-.00179.09456-.0651.02344-.01612.08805-.06038.00781-.00537.09327-.0638.02522-.01726.08513-.05794.01009-.007.09277-.06315.026-.01758.08122-.05517.01481-.01009.09229-.0625.0262-.01774.07975-.05371.01612-.01091.09212-.062.027-.01823.07568-.05078.02116-.01432.09082-.06071.02718-.01823.07715-.0516.01921-.01269.09212-.06153.02669-.01774.07389-.04915.02393-.01579.092-.06087.02393-.016.07845-.05176.0205-.01351.09359-.06185.02262-.01481.07862-.05159.02164-.01433.09343-.0612.02295-.015.07666-.05013.02441-.016.092-.0599.02393-.01562.07682-.05.02425-.01579.09343-.06054.02067-.01335.07861-.05078.02474-.016.09277-.0599.02246-.01448.077-.04948.02588-.0166.09375-.06006.01872-.012.0804-.05143.02409-.0153.09473-.06038.01822-.01172.08171-.05192.02409-.0153.096-.06087.013-.0083.08431-.05323.0262-.0166.09554-.06022.01107-.007.08691-.05452.0254-.01612.09635-.06038.0083-.00521.09033-.05648.0236-.01465.09766-.06087.00618-.0039.092-.05713.02458-.0153.09782-.06055.00163-.00114.09635-.05957.02425-.015.0944-.05811.00537-.00325.09571-.05876.02636-.01628.08936-.05468.00911-.00554.09668-.05924.02523-.0153.0874-.05322.01237-.00749.09538-.05794.02767-.01677.084-.05094.01481-.00895.096-.05811.02587-.01546.08578-.0516.01383-.00846.09652-.05794.02669-.016.08187-.049.01823-.01091.0957-.05713.02653-.01579.08155-.0485.019-.01139.09619-.057.026-.01546.07992-.0472.02132-.0127.09619-.05664.02507-.01481.08007-.047.02263-.01334.09652-.05648.02376-.014.082-.04785.02067-.012.09831-.0573.02132-.01236.08236-.04786.02343-.01367.09636-.05566.02392-.01384.08024-.04638.02393-.01384.09749-.05615.02067-.01172.084-.04834.02246-.01269.09814-.05616.021-.012.082-.04688.02474-.014.09733-.05534.02165-.01237.08057-.04557.02734-.01547.09684-.05468.01986-.01124.08252-.04638.026-.01465.0988-.0555.01529-.00863.08676-.0485.026-.01449.09879-.05517.01384-.00765.08724-.0485.02734-.01514.099-.055.01074-.00586.09164-.05062.02506-.01384.10059-.05534.00683-.0039.09424-.0516.02637-.01448.10026-.05485.00553-.00293.09587-.05241.02637-.01432.10107-.055h0a21.18578,21.18578,0,0,1,10.12174-2.55892,10.66667,10.66667,0,0,0-.00113-21.33333Z" style="fill:#215200"/><path d="M490.66667,358.42707a42.81009,42.81009,0,0,0-14.28206-31.89966C449.24792,302.09371,381.43253,256,256,256S62.75208,302.09371,35.61539,326.52741a42.81009,42.81009,0,0,0-14.28206,31.89966V448A42.66667,42.66667,0,0,0,64,490.66667H448A42.66667,42.66667,0,0,0,490.66667,448Z" style="fill:#4da900"/><rect x="21.33333" y="405.33333" width="469.33333" height="85.33333" rx="42.66662" ry="42.66662" style="fill:#378900"/><path d="M402.67212,286.17006a10.62118,10.62118,0,0,0-4.83773,1.16687c-37.90511,19.33271-106.35587,69.64565-138.91308,189.39777a10.66669,10.66669,0,0,0,20.57779,5.62736A356.36182,356.36182,0,0,1,305.373,414.21879l.00358-.00692q.18273-.35967.366-.71818l.00611-.01188.05745-.1123.005-.00989c.10083-.19694.2028-.39551.30387-.5918l.00521-.01017.05941-.11532.00146-.003c.10108-.19612.20492-.39709.30624-.59257l.00569-.011.05632-.10873.00854-.01644.05371-.10351.01278-.02454c.07674-.14787.15682-.30167.23372-.44922l.00953-.01831.05029-.09643.01619-.03093.05062-.097.01278-.02446.05436-.10392.00464-.00883q.12012-.2296.24015-.45821l.00928-.01762.05151-.098.01644-.03121.0494-.09391.0153-.029.05241-.09961.00065-.00118c.06177-.11723.12394-.235.18579-.352l.00236-.0044.05387-.10185.01425-.02693.04964-.09371.01725-.0326.05054-.09525.00976-.01851c.0774-.14592.1543-.29049.23177-.436l.01815-.0341.04631-.08683.021-.03939.04737-.08883.01611-.03019.05192-.097.00309-.0059c.059-.1104.11662-.218.17562-.32817l.01367-.02547.04875-.09094.01929-.03589.0472-.088.01969-.03658.048-.08928.01489-.02783c.05916-.1099.11369-.21118.17293-.32092l.0061-.01132.05-.09265.01823-.03369.04745-.08781.02042-.03788.04558-.08423.02368-.04366.04459-.08248.01555-.0286c.053-.09786.10734-.19792.1604-.29566l.022-.04044.04207-.07748.02653-.04874.04265-.07833.02441-.0448.04492-.08248.01848-.03377c.05314-.0975.106-.19426.15918-.29159l.01961-.03585.04329-.07914.02653-.04846.04118-.0752.0271-.04952.04207-.07666.02548-.04642.04362-.07955.02018-.03671.1049-.19075.0048-.00875.04484-.0815.02466-.04464.0424-.077.02661-.0483.04069-.07369.03092-.056.03744-.06771.03426-.062.035-.06324.04232-.07658.06046-.10909.031-.0559.0398-.07186.02954-.05318.03841-.06922.03206-.05766.03744-.06734.03344-.06018.03614-.065.03475-.06238.05656-.10156.04451-.07975.031-.05555.03816-.06848.03557-.0636.03426-.06132.03515-.06286.03793-.06771.03108-.05562.04574-.08167.02441-.04354.06861-.12235.02156-.03837.04932-.08777.027-.04806.04346-.07727.03059-.05436.04021-.07149.03043-.05392.04151-.07369.03-.0533.05452-.09652.01831-.03247.06527-.11556.02734-.04822.04427-.07824.02889-.05107.04167-.07361.02995-.05277.04476-.079.02555-.045.05037-.0887.02124-.03744.07007-.1232.01669-.02938.05411-.095.02629-.04619.04492-.07881.02873-.05038.04207-.07377.03-.05249.04395-.077.02661-.04659.05558-.09708.028-.049.057-.09941.02694-.04708.04386-.07646.029-.05053.04476-.07792.02637-.0459.04826-.084.0227-.03939.05982-.10392.01172-.02051.07348-.12744.00838-.01461.06185-.10725.02328-.04033.04915-.085.02523-.04366.04769-.08248.02433-.04215.04981-.08594.02327-.0402.14372-.24785.016-.02754.05648-.09729.02034-.035.05347-.09192.01986-.0341.05517-.09468.01831-.03145.0625-.10722.01-.01717.07316-.12529.012-.02067.06111-.10449.019-.03239.053-.09062.02206-.03764.05347-.09118.01953-.03337.05753-.09806.0153-.02613c.04875-.08308.09847-.1676.1473-.25056l.01367-.02336.05811-.09863.02116-.03593.05265-.08932.02108-.03572.056-.09493.01611-.02735.07145-.12089.0013-.0022.076-.12845.00521-.00883.06795-.11475.01473-.0249.05925-.09986.01717-.029.05745-.09688.01661-.02795.06559-.11031.00708-.012.15112-.25378.00741-.01237.067-.11251.01189-.01982.06168-.10343.0153-.02547.06445-.10787.00855-.01424c.07625-.12761.1508-.25187.22721-.37915l.00781-.01307.06755-.11246.00968-.01616.06552-.10884.011-.01835c.0765-.127.15113-.25086.22762-.37757l.00375-.00618.07145-.11825.00822-.01359.06738-.11133.00977-.01619.06909-.11406.00586-.00972q.115-.18963.2299-.37866l.00463-.00769.07048-.11568.00846-.01392c.10409-.171.20052-.32906.30477-.49947l.00765-.01253.07129-.11634.00309-.00512.07194-.11744.007-.01143c.10165-.16565.20573-.33508.30746-.5002l.00464-.00753.073-.11841.004-.00647.07039-.11413.009-.01441q.623-1.009,1.24869-2.00366l.00106-.00159q.62622-.9956,1.25716-1.98022l.00253-.00391c29.8199-46.54171,64.6556-70.64921,87.55542-82.32877a10.66823,10.66823,0,0,0-4.85482-20.17105Z" style="fill:#378900"/><path d="M279.87826,256a40.42848,40.42848,0,0,0-14.84457,2.81856c-36.147,14.20183-157.25293,71.86432-197.98893,217.57717A10.66674,10.66674,0,0,0,87.582,482.16984c26.33423-94.249,88.8042-149.24125,136.24-178.62606l.00138-.00085.09506-.05888.00659-.00409.095-.0588.00309-.00193.09326-.05764.009-.00557.09033-.05583.00936-.00576.09074-.056.00838-.00518.091-.05616.00847-.0052.0922-.05683.006-.00372.09033-.05565.01351-.00828.08358-.05143.019-.01168.07967-.049.01945-.01192.08448-.05192.009-.00555.09066-.05567.00756-.00464.09327-.05721.00309-.00191.09424-.05776.00773-.00474q1.38233-.84705,2.745-1.6641l.00261-.00157.09472-.0568.00293-.00175.09424-.05646.00366-.00216.09172-.05491.00667-.004.09213-.055.005-.003.08992-.05369.009-.00537.091-.05434.00521-.0031.09285-.05544.00407-.00238.09481-.05658.00155-.00089.0909-.05416.00984-.00588.09115-.05424.00334-.002.09179-.05461.00741-.00442.08822-.05244.01049-.00623.08651-.05141.01042-.00615.08821-.05236.00765-.00454.09025-.05355.006-.0035.08732-.05176.015-.00891.08163-.04834.01538-.00909.08227-.04869.01432-.0085.08252-.04879.01449-.00852.08317-.04916.012-.0071.0883-.05214.00139-.00084.28792-.16969.003-.00177.09294-.05469.00455-.00271q1.1067-.65112,2.19939-1.28273l.00008-.00006.09513-.055v0c.12541-.07245.25456-.14693.37964-.219l.00057-.00029.0944-.05436.00041-.00024.08984-.0517.00789-.00456.08065-.04632.01848-.01064.07609-.04368.01879-.01081.07675-.044.0179-.01028.07519-.04315.02206-.01265.07226-.04141.02255-.01292.07283-.0417.022-.01258.07479-.0428.01726-.00987.07487-.04283.02628-.015.06641-.038.02693-.01536.06836-.039.02906-.0166.06632-.03782.02425-.01381.0717-.0409.02287-.013.0734-.04181.01782-.01019.07618-.04334.0205-.01165.07316-.04165.019-.01078.08007-.04547.00651-.00373.08619-.049.01066-.006.08406-.04773.00733-.00415c.61832-.35075,1.24332-.70266,1.85416-1.04405l.00594-.00333.08757-.04887.00488-.00277.08822-.04923.00447-.00249.08912-.04972.00317-.00179.07886-.04392.01692-.00944.08326-.04637.00667-.0037.07951-.04425.01554-.00869.07975-.04433.01148-.00637.0778-.04323.016-.0089.08651-.048.00138-.00075.08634-.04791.00814-.00456.08569-.04751.00554-.003.07991-.04429.01652-.00916.08-.04429.009-.005.08122-.04494.01213-.0067.08113-.04486.01026-.00565.07666-.04236.02018-.01113.07186-.03969.01929-.01062.07316-.04037.01823-.01.07633-.04207.01359-.00753.07284-.04008.02547-.014.06917-.03808.01831-.01.07251-.03988.02018-.01113.07593-.04167.00952-.00527.08081-.04435.01294-.00712.07984-.04378.00879-.00484.082-.04493.01041-.00573.082-.04492.00741-.00407.08089-.04425.01636-.009.0778-.0426.00545-.003c.21265-.11629.41829-.22843.63-.34357l.00757-.00413c.26164-.14233.53329-.28961.79338-.43017l.01261-.00684c.11475-.062.2334-.126.34782-.18766l.01229-.00661.07048-.038.02091-.01129.06519-.03505.025-.01347.06282-.03377.02824-.0152.06812-.0366.01961-.01052.068-.03656.02262-.01213.06722-.036.02262-.01216.06918-.03707.01969-.01056.06421-.0344.029-.01553.05925-.03172.02954-.0158.06437-.03445.02311-.01235.06242-.03336.03214-.0172.05168-.02762.03882-.02072.05379-.0287.0328-.0175.06087-.03249.02718-.01449.05778-.0308.03687-.01965.05029-.02678.03768-.02006.05371-.02856.03572-.019.05176-.02753.03874-.02061.05046-.02681.04069-.02163.04565-.02425.043-.02279.05013-.02659.03678-.01951.05217-.02767.03589-.019.0524-.02773.0424-.02246.04248-.02251.04427-.02341.052-.02755.02864-.01512.05827-.03084.03353-.01768.0555-.02932.03451-.01827.05257-.02773.03491-.01843.0564-.02974.02921-.0154.05721-.03016.03434-.01808.05469-.02883.03345-.01758.05436-.02863.03019-.01588.06185-.03254.01433-.00754.07242-.038.02124-.01119.066-.03465.0201-.01056.15609-.08188.02474-.01294.0612-.03207.03662-.0192.052-.02723.01945-.01017c.22225-.11633.44645-.23334.6674-.34831l.01034-.00537.06762-.03519.02051-.01064.0494-.02572.04093-.02126.03614-.01876.05224-.02716.03882-.02014.04533-.02352.05273-.02736.034-.01762.05086-.02637.03614-.01872.05558-.02877.02921-.01515.06023-.03115.0262-.01355.05762-.02981.03084-.01595.05705-.0295.02669-.01379.06144-.03172.02678-.01379.05477-.0283.03181-.01638.05852-.03019.0271-.014.054-.02785.03557-.01831.04964-.02556.03678-.01894.0494-.02543.03524-.01813.052-.02671.03621-.01861.04859-.025.03467-.01784.05607-.02875.02913-.01495.054-.02769.03165-.01624.05819-.02982.02563-.01312.05925-.03038.02449-.01251.06364-.03257.023-.01174.05827-.02983.0293-.015.05721-.02922.02864-.01465.0564-.02881.02848-.01454.05648-.02883.03141-.016.05225-.02665.03206-.01632.05494-.028.03361-.01709.04825-.02461.03882-.01974.04672-.02378.04077-.02073.04386-.0223.038-.01931.04874-.02478.03679-.01868.04777-.02423.03051-.01552.0573-.02907.0205-.01038.06356-.03223.01937-.00982.1508-.07638.01611-.00814.06519-.033.0345-.01743.05151-.026.01986-.01.06511-.03288.1254-.06329.11865-.05982.01547-.00779c.15967-.08044.31795-.16.4768-.23973l.01677-.00842.07438-.03729.00659-.0033.05436-.02726.03475-.01739.051-.02552.02848-.01426.05819-.02911.02653-.01325.05338-.02673.03052-.01524.0472-.0236.03817-.019.04777-.02385.03239-.01619.05493-.02739.02832-.01412.05135-.02561.03385-.01687.04232-.02109.04444-.02214.04012-.01994.03719-.01853.05566-.02767.02539-.01266.05233-.026.0345-.01713.04484-.0223.03923-.01945.04435-.022.03622-.018.045-.02232.043-.02137.03426-.017.04915-.02434.0337-.01668.04842-.024.03621-.0179.04443-.022.04-.01976.04-.01977.04395-.02175.03768-.0186.04337-.02144.04142-.02045.04191-.02067.03264-.01609.0568-.028.0175-.0086.0651-.03207.01725-.00852.05892-.029.03174-.01563.05143-.02531.02417-.01188.05778-.02842.02483-.01221.05737-.02818.02433-.012.05241-.02573.0411-.02013.03939-.01934.03946-.01937.04371-.02141.03507-.01719.04606-.02258.03858-.01888.04126-.0202.03711-.01817.04809-.0235.0175-.00856.06461-.0316.00928-.00454.0717-.035.00691-.00338.07211-.0352.01155-.00561c.201-.09808.40227-.196.60181-.29285l.02889-.014.13379-.06488.02612-.01263.06364-.03082.01375-.00666.05738-.02779.02409-.01161.0629-.03044.01481-.00714.06112-.02956.01945-.00938.0721-.03483.00415-.002.06617-.0319.01554-.00752.06307-.0304.01619-.00781.05339-.02574.02954-.01422.05021-.02417.02792-.01343.05086-.02449.02742-.01317.06657-.032.00668-.00321.06656-.032.01506-.0072.06283-.03015.01676-.00808.05452-.02614.02808-.01347.05689-.02728.01676-.008.05916-.02834.023-.011.05168-.02471.0306-.01465.04378-.02094.03532-.01692.04712-.02251.03052-.01456.04475-.02139.03435-.01639.04557-.02179.03337-.01591.043-.02051.03572-.017.04492-.02142.03247-.01545.04346-.02071.03369-.01607.04867-.02313.02645-.0126.04874-.02317.03378-.016.04419-.021.02978-.01418.05225-.02478.0192-.00913.05892-.02794.019-.009.05607-.02659.02621-.01243.05151-.02439.02491-.01182.05175-.02452.03223-.01522.0411-.01945.05216-.02468.02254-.01064.05266-.02488.0275-.013.054-.02547.02059-.00973.04923-.02323.033-.01556.03784-.01783.03711-.01751.03508-.0165.04679-.02206.00651-.00309.06665-.03137.02938-.0138c.13591-.06394.26839-.12618.40356-.18951l.02662-.01247.02115-.00993.057-.02665.012-.00562.062-.029.13191-.06169.01978-.00923.12679-.05921.02588-.01206.04183-.01953.03263-.0152.04883-.02277.02628-.01224.04484-.0209.033-.01532.03264-.0152.04671-.02173.02344-.01088.05094-.02368.02848-.01327.04737-.022.02588-.012.04939-.02295.0315-.01461.04191-.01945.03377-.01567.04085-.01892.03418-.01585.04509-.02087.02441-.01131.04728-.02191.03687-.017.03711-.01715.03239-.015.04622-.02136.02653-.01227.05054-.02333.02287-.01056.04671-.02155.038-.01754.0328-.01513.03923-.01809.03735-.01719.0363-.0167.04044-.01864.03255-.015.04159-.01913.03385-.0156.03784-.0174.037-.017.03687-.01694.03841-.01766.03491-.016.039-.01789.03223-.01481.0437-.02.03019-.01387.04256-.01949.02995-.01372.04346-.01989.03434-.01575.03727-.01705.03508-.016.04126-.0189.0284-.013.04451-.02035.0293-.01334.04216-.01929.05118-.02334.01677-.00767.05591-.02549.01945-.00889.04988-.02273.02434-.01108.04793-.02183.02458-.01121.0594-.027.01245-.00568.0577-.02622.016-.00731.1386-.063.007-.00315.12842-.05829.01913-.00869.13468-.061.0223-.01009c.19059-.08626.37866-.1711.5673-.256l.00407-.00185.0673-.03028.00855-.00382.0603-.02712.018-.00808.12728-.05713.012-.00537.133-.05961.006-.00271.13412-.06.01456-.00651.06006-.02686.0048-.00214.06145-.02748.01652-.00735.061-.02728.001-.00043.06315-.0282.01872-.00834.05379-.024.01294-.00574.05851-.02606.01131-.00505.05851-.02606.01433-.00637.05037-.0224.02653-.01182.04151-.01845.02856-.0127.043-.01908.02482-.011.04867-.02158.0192-.00853.05-.02224.02124-.0094.05444-.02412.0105-.00466.05908-.02619.01294-.00571.04794-.02118.02693-.01195.03671-.01623.03572-.01579.0367-.01621.02824-.0125.03907-.01725.03344-.01477.04118-.01817.02328-.01025.04345-.01919.02971-.01308.04394-.01937.02051-.009.03963-.01746.03613-.01593.03581-.01572.02612-.0115.04542-.02.02669-.0117.05656-.02486.00781-.00344.04842-.02124.02409-.0106.03312-.01452.03524-.01548.02335-.0102.11386-.0499.00569-.00251c.1259-.05513.24854-.1087.37346-.16318l.02734-.01193.04451-.01941.0184-.008.046-.02.02311-.01007.06136-.02671.0026-.00112.04265-.01856.02921-.01271.0354-.01539.02873-.01249.0363-.01576.03385-.01471.02873-.01243.03735-.01622.02417-.0105.04688-.0203.01448-.00629.04907-.02128.02954-.0128.03427-.01483.03369-.01454.03483-.0151.02734-.0118.03906-.01691.03516-.0152.026-.01121.04093-.01766.02767-.012.03337-.01438.03735-.01612.02238-.00966.04134-.01782.036-.0155.02417-.0104.04143-.01782.026-.01121.03629-.01565.03353-.0144.02914-.01254.03247-.01393.04313-.01856.01693-.00728.0428-.01837.02889-.01239.03491-.015.03174-.01359.03052-.0131.03678-.01579.02979-.01273.03255-.014.03247-.01389.03133-.01341.03768-.01612.02319-.0099.03874-.01656.029-.01243.03866-.0165.01872-.008.04655-.01988.01823-.00777.04581-.01955.02092-.00889.039-.01664.03076-.01309.03768-.01607.01766-.00749.04346-.01851.03255-.01385.03-.01276.03637-.01548.02727-.01156.028-.01192.04159-.01768.00561-.00238.05567-.0236.01342-.00572.11369-.0482.01555-.00655.04768-.0202.01555-.00657.0463-.01963.02-.00845c.10661-.04508.21371-.09033.31942-.13486l.10059-.04234.02368-.01.04028-.017.01693-.00712.0463-.01947.00855-.00358.11442-.04806.02108-.00885.04427-.01857.01115-.00466.052-.02181.00627-.00263.05509-.02309.01481-.00616.04541-.019.02051-.00855.041-.01717.01921-.008.047-.01963.00651-.00273.0546-.02278.01278-.00533.04451-.0186.02344-.00978.03768-.01571.02409-.01005.04191-.01748.0105-.00435.05322-.02218.00627-.00258.05534-.02305.0074-.00307.0472-.01964.02442-.01015.03491-.01451.023-.00952.04549-.0189.009-.00374.05143-.02134.01254-.00519.03987-.01654.02938-.01215.03166-.01314.02376-.00985.043-.01776.01449-.006.04467-.01849.01962-.0081.03108-.01286.03508-.01448.03035-.01258.02132-.00879.0389-.01605.02629-.01084.0376-.01551.01619-.00669.04037-.01662.025-.0103.03613-.01487.01937-.008.03923-.01616.02441-.01005.03239-.0133.0249-.01024.03719-.01528.02238-.00921.04509-.01852.01107-.00453.05184-.0213.00724-.00295.11027-.04521.00911-.0037.2299-.094.00537-.0022.22355-.09118.02344-.00952.10181-.04143.01668-.00677.09945-.04043.0275-.01115.02922-.01186.0992-.04022.01433-.0058.04085-.01654.01514-.00612.0288-.01166.03459-.014.01424-.00574.03679-.01487.03491-.0141.02384-.00964.0315-.0127.02254-.00911.0319-.01288.02978-.012.02051-.00828.034-.01372.02661-.01072.03027-.0122.02255-.00906.03393-.01367.02417-.00972.0328-.01319.0223-.009.03263-.01312.024-.00965.0341-.01369.01961-.00785.03589-.01443.01937-.00775.03963-.01589.01351-.00543.04321-.01731.01066-.00428.046-.01841.01147-.0046.03671-.01466.02514-.01008.03313-.01324.019-.00757.03377-.01351.02384-.00952.03785-.0151.01131-.00451.04109-.01638.01742-.007.04077-.01623.01148-.00456.03873-.01544.02076-.00828.03442-.0137.01839-.00734.03532-.014.01929-.00767.04134-.01644.0118-.00466.03434-.01367.023-.00909.04761-.0189.00049-.00021.047-.01863.01058-.00419.04077-.01618.01425-.00563.03645-.01443.01775-.007.04728-.01871.00415-.00163.04378-.0173.0118-.00469.0481-.019.00431-.00169.03931-.01552.01684-.00665.03923-.01546.01294-.00511.03751-.01479.0166-.00653.21184-.08338a19.24293,19.24293,0,0,1,7.043-1.3408,10.66666,10.66666,0,0,0,0-21.33333Z" style="fill:#378900"/><path d="M272.83525,278.67407c-36.28782,14.25728-152.18169,70.71168-187.50192,211.9926H192s21.33333-128,101.64452-181.57136c8.47368-5.65234,6.78778-19.02951-.41473-26.232l0,0A18.93435,18.93435,0,0,0,272.83525,278.67407Z" style="fill:#caefb7"/><path d="M272.83464,278.67318c-.02295.00682-.05209.02213-.07683.03125-.02734.01041-.05469.02213-.082.03255l-.04948.01953c-.013.00391-.02344.00912-.03646.01432l-.01432.00521-.03646.01432-.01562.00652c-.01563.00651-.02865.01041-.043.01692l-.00912.00261-.03906.01692-.01432.00521c-26.53386,10.48568-93.92318,42.87761-142.58724,113.03906l-.00651.00782c-.02735.04036-.0586.08593-.08724.1263l-.00912.01432c-.02864.04037-.05729.08073-.08463.1211l-.013.01822-.08073.11849a.13546.13546,0,0,0-.01563.02214c-.02864.04036-.05338.07682-.08073.11719l-.01562.02213c-.02344.03386-.056.082-.08073.11589l-.01562.02344c-.02344.03515-.056.08072-.07943.11588l-.01693.02344c-.02344.03385-.056.082-.07943.11719a.21776.21776,0,0,0-.01562.02083c-.02344.03516-.05729.08333-.08073.11849l-.01432.02083c-.02474.03516-.05729.082-.08073.11719l-.01693.02474c-.02344.03516-.05469.07943-.07812.11458l-.01823.02474-.07813.11589-.01562.02213c-.02735.04037-.05339.07813-.082.11979l-.01172.01693-.08334.1224-.01041.01562c-.02865.04037-.0586.08464-.08594.125l-.00651.01042c-.349.51042-.6875,1.01042-1.03255,1.52474a.05218.05218,0,0,0-.00391.00521c-.03125.04687-.05859.08724-.08984.13411l-.00521.00651c-.02735.04167-.05469.082-.082.1224l-.01433.02213c-.02734.04167-.05078.07422-.07812.11589l-.01823.02734c-.02734.04037-.04557.06771-.07292.10938-.00781.01172-.01562.02213-.02343.03515-.02344.03516-.04818.07032-.07162.10547a.329.329,0,0,1-.02344.03516l-.07031.10547c-.00781.013-.01693.026-.02474.03776l-.07031.10547c-.00781.013-.01693.02474-.02474.03646-.02344.03515-.04427.0664-.06771.10286-.01172.01823-.01823.026-.02995.04427l-.0638.09635c-.00911.013-.02213.03386-.03125.04558-.02344.03515-.04166.0638-.0651.099-.00782.01171-.02084.03125-.02865.04427l-.0664.099c-.01172.01822-.01563.02473-.02865.043l-.06641.099c-.01172.01953-.01692.02735-.02864.04557-.01953.02865-.04558.069-.06511.09766l-.02994.04427c-.01954.02995-.04558.07031-.06511.099-.00781.013-.02213.03255-.02995.04557-.01953.02865-.04557.06771-.0651.09766-.00781.013-.02083.03255-.02865.04427-.01953.02995-.04687.07031-.0664.10026l-.02865.04427c-.01953.02995-.04557.06771-.0651.09766l-.03256.04948-.0625.09375c-.01171.01953-.01822.02995-.03125.04817-.02343.03516-.04036.0625-.0638.09766l-.026.03906c-.02213.03516-.04557.07032-.069.10547-.00781.01172-.01432.02344-.02344.03516-.02343.03646-.04687.07291-.07031.10807l-.01823.02734c-.14713.22526-.293.44792-.4401.67448l-.00912.01433c-.02343.03646-.04687.07161-.07031.10677-.00781.013-.01693.02734-.026.04036-.02214.03516-.03906.0599-.0625.09636-.01172.01823-.01953.02994-.03125.04948l-.05729.08724-.03907.05989c-.01562.02344-.03906.0599-.05468.08464l-.03907.05989c-.01953.02995-.03645.056-.05468.08594-.01693.02474-.02344.03516-.03907.0599l-.056.08593-.03776.0586-.056.08593-.03906.0612-.056.08594c-.01172.01823-.02474.03906-.03776.05859-.01823.02995-.03515.056-.05469.08594-.01171.01823-.02864.043-.04036.0625-.01953.03-.03385.05208-.05208.082-.013.01823-.02995.04558-.043.06511-.01432.02343-.03516.05468-.05078.07812-.01563.026-.02735.04427-.043.069-.01563.02344-.03646.056-.05208.07943l-.04037.0651c-.01562.02344-.03776.05729-.05339.082l-.04166.06511c-.01563.02474-.03516.056-.05078.07943-.01172.01953-.03125.04947-.04427.0677-.01823.03-.03125.04948-.05079.07943-.01171.01953-.02994.04818-.04166.06641l-.05209.08073c-.01171.01953-.02994.04817-.04166.0664-.01953.02995-.03125.04948-.05078.07943l-.04427.07031c-.01563.02474-.03386.05339-.04948.07683l-.043.0677c-.01563.02474-.03646.0573-.05209.08073l-.04166.06641c-.01563.02344-.03516.056-.05078.08073s-.02735.043-.04427.06771c-.01433.02474-.03386.05468-.04948.07812-.01563.026-.03125.05078-.04688.07552l-.04557.07162c-.01563.02474-.03386.05468-.05078.07942-.01433.02474-.02735.04427-.043.069-.01953.03125-.02865.04558-.04948.07683-.01432.02474-.02865.04687-.04427.07031-.01953.03255-.03906.0638-.0599.09505-.01041.01823-.02083.03386-.03255.05208-.0638.10027-.1237.19532-.1862.29688l-.03385.05208-.0599.09636-.03255.05208c-.02344.03776-.03776.0599-.0612.09766-.00781.01172-.026.04036-.03385.05338-.01953.03125-.03906.0625-.0599.09505-.01041.01823-.026.04167-.03776.0599-.01562.026-.03776.0625-.05468.08724-.01042.01823-.02865.04687-.04037.0651-.01562.02474-.03646.0599-.05338.08464-.01042.01823-.02735.04427-.03777.0625-.02083.03125-.03515.05469-.05468.08724-.01563.02344-.02344.03776-.03907.0625l-.05468.08724c-.01563.02474-.02214.03646-.03776.05989-.01953.03256-.03516.0573-.05469.08855-.01172.01823-.02734.04427-.03906.0625-.01953.03255-.03516.05729-.05469.08854l-.03646.05729c-.01953.03255-.03776.0612-.05729.09375l-.03646.05729c-.01953.03125-.03646.0599-.056.09115l-.03776.05989c-.01562.02474-.03906.06511-.05469.08985l-.03776.05989c-.01562.02474-.04036.06641-.056.09115-.01172.01823-.02474.03906-.03645.05859-.01954.03125-.03776.0599-.0573.09245-.01041.01823-.02343.03776-.03515.056-.01953.03255-.03907.0638-.0586.09635-.01041.01823-.02213.03516-.03255.05339-.01953.03255-.04036.0651-.05989.09635-.01172.01953-.02214.03646-.03386.05469-.01953.03255-.04167.06771-.0612.099-.00651.013-.02213.03776-.02994.04948-.01954.03125-.043.07161-.0625.10286-.00782.01172-.02344.03646-.02995.04818-.01953.03255-.04558.07422-.06511.10677l-.02734.043-.06771.112-.02474.03906c-.026.04427-.04557.07552-.07291.11979l-.01823.02995c-.02735.04427-.05469.08854-.082.13412l-.00911.01562c-.21875.35677-.43359.71224-.651,1.07031l-.00781.013c-.02735.04427-.0573.09506-.08464.14063l-.01172.01953c-.02734.04557-.05208.08594-.07942.13151a.20664.20664,0,0,0-.01693.02865c-.02735.04427-.04948.08073-.07552.125l-.01693.026c-.026.04557-.04818.082-.07552.1263l-.01823.02995c-.026.04557-.04687.07812-.07292.1237l-.01953.03125c-.02344.03906-.04948.082-.07161.11979l-.02214.03646c-.02344.03906-.04687.07942-.07031.11718l-.02083.03516c-.02344.03906-.04818.08073-.07162.11849l-.02083.03516c-.02214.03906-.04818.08072-.07162.11979-.00651.01172-.013.02083-.01953.03385l-.07031.11719a.40892.40892,0,0,0-.02344.04036c-.02344.03776-.04427.07422-.06771.112l-.02474.04167c-.02213.03906-.04427.07422-.0664.11328a.38812.38812,0,0,0-.02344.03906c-.02344.03907-.04818.07943-.07031.11849-.00391.00521-.01693.02735-.02084.03386-.02343.03906-.04947.08333-.07291.12239-.00781.013-.01042.01693-.01693.02995l-.07292.12109a.312.312,0,0,1-.02083.03516c-.02213.03906-.04948.08464-.07292.1237l-.01562.02734c-.02734.04557-.05208.08724-.07813.13281l-.013.02084c-.02734.04557-.056.09375-.082.13932l-.00911.01432c-.02995.05209-.05469.09375-.08464.14584l-.00651.00911q-.55078.93555-1.09635,1.87761v.0013c-.02995.05208-.0599.10286-.08985.155l-.0026.0026c-.02995.05339-.056.099-.08594.151l-.00911.01563c-.02735.04557-.05469.09375-.08073.14062l-.01172.01823c-.026.04688-.05339.09245-.07943.13932l-.01041.01693-.08073.14063-.00912.01562c-.02995.05339-.05078.08854-.08073.14063l-.01041.01692c-.02995.05339-.04948.08724-.07943.13933l-.01172.01953c-.02213.04036-.05469.09765-.07812.13672l-.01172.02213c-.02344.03906-.056.09766-.07943.138l-.01042.01823c-.02994.05208-.05078.08984-.08073.14193l-.00781.013c-.02995.05338-.05338.09375-.08333.14713l-.00651.01042c-.02995.05339-.056.09766-.08594.151-.00391.00521,0-.0013-.0026.00521-.03125.05339-.0586.10287-.08855.155l-.0013.0026a299.85776,299.85776,0,0,0-26.39453,61.79427,10.66706,10.66706,0,0,0,20.4375,6.1198C146.66016,359.94531,249.19271,310.944,280.3112,298.65755A10.66675,10.66675,0,0,0,290.54557,288C290.54557,282.80339,285.24217,274.98473,272.83464,278.67318Z" style="fill:#9fe27c"/><path d="M421.7816,299.91714c-29.15907,11.30432-110.57976,55.27552-144.44827,190.74953H384s7.22532-96.21725,59.85343-160.66635a19.16387,19.16387,0,0,0-1.60771-25.57314l0,0A19.21711,19.21711,0,0,0,421.7816,299.91714Z" style="fill:#caefb7"/><path d="M430.97917,298.95964a20.06778,20.06778,0,0,0-9.19792.957c-.02228.00874-.04818.01823-.07031.02734-.01563.00651-.03125.013-.04688.01823l-.00781.0026-.02214.00912-.02083.00781-.01562.00651A.26564.26564,0,0,0,421.569,300l-.01172.00391-.02864.01172-.02214.00781-.02083.00911-.01693.00651a.21745.21745,0,0,0-.026.01042l-.01693.00651a.23331.23331,0,0,0-.02734.01042l-.01433.0052-.02473.01042-.02474.00912-.01693.00651-.02735.01041-.013.00521c-.01041.00521-.02474.01042-.03515.01432l-.00521.00131a.34935.34935,0,0,1-.03906.01562l-.00131.0013c-.01171.00391-.026.01042-.03906.01433l-.00651.0039-.03255.01172-.01042.00521c-.02734.01042-.05338.02083-.07942.03125h-.00131l-.04036.01562-.00521.00261c-.01042.00391-.026.00911-.03646.01432l-.00781.00261c-.04036.01562-.082.03255-.1224.04817l-.0013.00131c-.23047.09114-.5638.26041-.80078.35546-.03646.01563-.07682.03256-.11328.04688v.0026A167.9011,167.9011,0,0,0,397.181,312.04818l-.00521.0026-.0638.03776-.0026.0013c-.02214.013-.04037.02474-.0625.03776l-.00521.00261c-.01823.01172-.03907.02344-.0586.03515l-.00911.00521c-.04167.02474-.08594.05209-.12761.07683h-.0026c-.44271.26432-.88542.53125-1.33333.80338l-.00261.0013-.0651.03907-.00261.0013c-.01953.01172-.04036.02474-.05989.03776l-.00912.0039c-.01953.013-.03906.02474-.05989.03646l-.00651.00521c-.02084.01172-.03907.02344-.0586.03516l-.01041.00651c-.01953.01172-.03646.02213-.05729.03385l-.01172.00781-.05339.03256-.01432.00911-.0586.03516-.00651.00521-.05859.03515-.01172.00651-.05729.03516-.01042.00781c-.01692.00912-.03906.02344-.056.03386l-.01172.00651c-.02083.013-.04036.02474-.05989.03645l-.00521.00391-.05989.03646-.01172.00651c-.01953.01172-.03907.02474-.0586.03646l-.00521.0039c-.02343.013-.03906.02344-.06119.03776l-.00912.00521c-.08854.05339-.17838.10938-.26562.16276v.00131c-.22657.13932-.45052.27734-.67839.41927l-.0039.0026c-.01954.013-.04037.02474-.0599.03776l-.00912.00521c-.02083.013-.03645.02344-.056.03516l-.01433.00911-.056.03385-.013.00912c-.01953.01172-.03646.02213-.056.03515l-.013.00782c-.01953.01172-.03646.02343-.05729.03515l-.01042.00651c-.02083.013-.03385.02214-.05468.03516l-.01693.01042-.05078.03125a.15647.15647,0,0,1-.01953.01172l-.04558.02994-.02734.01563c-.01432.00911-.02865.01953-.043.02734l-.02344.01563c-.01823.01041-.02995.01823-.04687.02864a.227.227,0,0,1-.02344.01433c-.01693.01171-.03125.01953-.04818.03125l-.01953.01171c-.01692.01042-.03385.02084-.05078.03256l-.01693.01041c-.01823.01042-.03515.02214-.05208.03256l-.01953.013c-.01823.01041-.03.01823-.04688.02864l-.02734.01823c-.01432.00781-.02865.01693-.043.026l-.026.01693-.04427.02734-.02474.01563-.04427.02864-.026.01693-.04427.02735-.026.01562c-.01692.01172-.02734.01823-.04557.02995l-.01693.01042c-.01692.01041-.03515.02213-.05208.03385l-.02083.01172c-.01693.01172-.03125.02083-.04818.03125l-.02474.01562-.04557.02865-.01823.01172c-.08594.05469-.16927.10807-.25651.16276l-.00391.0039-.06771.04167-.0026.0013c-.043.02865-.08594.056-.13021.08334l-.00911.00651-.056.03515-.01433.01042c-.01822.01042-.02994.01823-.04817.02995a.27917.27917,0,0,0-.02474.01692c-.01563.00912-.02865.01823-.043.02735a.31053.31053,0,0,0-.02734.01693l-.04037.026-.03255.02083-.03646.02344c-.00911.00521-.02344.01562-.03255.02083-.01563.00912-.026.01693-.04037.026-.00911.00651-.02213.01433-.03125.01953l-.03906.02474c-.00911.00651-.02213.01563-.03125.02084l-.04036.026-.02995.01953-.043.02734-.026.01693c-.01693.01042-.02995.01823-.04688.03l-.02083.01432c-.01823.01042-.03385.02084-.05208.03255l-.01823.01172c-.01693.01172-.03255.02084-.04948.03255l-.02474.01563-.04427.02865-.026.01692c-.01563.00912-.03256.02084-.04688.02995l-.02213.01432-.04818.03125-.02474.01563c-.01432.01042-.03.01953-.04427.02864l-.02995.01954c-.01432.01041-.02734.01822-.04167.02734l-.02994.01953-.03907.026-.03906.02474-.03125.01953-.03906.026-.03386.02214-.03515.02214c-.01432.01041-.02214.01432-.03646.02474-.00912.0052-.02344.01562-.03255.02083l-.03906.02474-.03256.02213c-.01432.00912-.02343.01563-.03906.02474-.01432.01042-.02995.01953-.04427.02995l-.026.01693c-.02344.01562-.04688.03-.07162.04687l-.00781.00521c-.02083.013-.04167.02734-.0638.04037l-.02214.01562-.04948.03255-.02734.01693-.043.02865c-.01562.01041-.02344.01432-.03776.02474-.00911.0052-.02474.01562-.03385.02213l-.04167.02734-.02995.01954-.03646.02474c-.013.00781-.02474.01562-.03645.02343l-.03516.02344c-.01172.00781-.02344.01563-.03646.02344l-.03516.02344c-.01171.00781-.02473.01562-.03776.02473l-.03515.02344c-.013.00781-.02214.01433-.03386.02214l-.03776.02474c-.01172.00781-.02474.01692-.03776.02474l-.03125.02083c-.01562.01042-.02474.01693-.04036.026l-.03125.02084-.04167.02734-.03.02083c-.01562.00912-.02734.01823-.043.02735l-.02865.01953-.043.02864-.03125.02084a.40593.40593,0,0,0-.03906.026l-.03255.02083c-.01172.00781-.03.01953-.04167.02865l-.02865.01823c-.01823.01172-.02994.01953-.04817.03255l-.02214.01432c-.01562.01042-.03646.02344-.05078.03386l-.02214.01432-.05078.03385-.02343.01433c-.01433.01041-.03125.02213-.04688.03125a.31378.31378,0,0,1-.026.01822l-.04557.02995a.20009.20009,0,0,1-.02735.01823c-.01562.01042-.03385.02344-.04948.03255-.00781.00651-.013.00912-.02213.01563-.02084.01432-.03646.02474-.0586.03906l-.01171.00781c-.01823.013-.03646.02474-.05469.03646l-.02084.01433c-.01822.01171-.03515.02343-.05468.03645l-.01693.01172c-.19661.13151-.39193.26172-.58854.39453l-.0013.00131c-.02474.01692-.04688.03125-.07162.04817l-.00911.00651c-.02214.01433-.04037.02735-.0625.04167l-.01823.01172c-.01823.013-.03516.02344-.05339.03646l-.02213.01432-.05339.03646a.06964.06964,0,0,0-.01562.01172c-.01823.01172-.04037.026-.0586.03906l-.01432.00911c-.01823.013-.03906.02605-.05729.03907a.10745.10745,0,0,0-.01953.01432c-.01953.01172-.03776.02474-.056.03776l-.01433.00911c-.01822.013-.04036.02735-.05859.03907a.19176.19176,0,0,0-.01693.013c-.01953.01172-.03906.026-.05729.03776l-.01562.01042c-.01823.013-.04037.02864-.0599.04036l-.013.00911c-.01823.013-.04427.03125-.0625.043l-.01042.00651c-.02083.01563-.03645.026-.05859.04037l-.01823.013-.0612.04167-.00911.00651-.0612.04036a.123.123,0,0,1-.01562.01172c-.02214.01432-.043.02864-.06511.04427l-.00521.00391c-.02213.01432-.04557.03125-.06771.04557l-.00781.00521c-.02474.01692-.04427.03125-.069.04817l-.0039.00261c-.32292.22135-.64584.44271-.97136.668l-.0026.0026c-.02474.01693-.04688.03255-.07292.04948l-.0013.0026-.07162.04948-.0052.00391c-.02474.01693-.04688.03125-.07162.04948h-.0013c-.02474.01823-.04688.03385-.07292.05078l-.0039.00391c-.02605.01692-.04558.03125-.07032.04817l-.00521.00391c-.02473.01693-.04427.02995-.069.04818l-.00781.00521c-.02213.01432-.04427.02994-.0651.04557l-.01172.00781c-.01823.013-.04427.03125-.0638.04427l-.01042.00781c-.01953.013-.04687.03256-.0651.04558l-.00912.00651c-.02474.01693-.04427.03-.069.04817l-.00391.00261-.07161.04948-.0026.0026c-.026.01823-.04818.03386-.07422.05078l-.0013.00131c-29.612,20.7539-66.64454,58.13281-92.10547,123.33333-.02214.056-.043.10807-.06381.16276l-.0026.00781c-.02213.05469-.04036.10156-.0612.15755l-.0039.00912c-.02214.056-.04167.10547-.0625.16015l-.00131.00261c-.02083.05469-.04036.10547-.0625.16016l-.0026.00911c-.02214.056-.04036.10417-.0625.15885l-.0026.00651c-.02084.05469-.03907.10287-.0612.15756l-.00391.01041c-.02083.056-.03906.10157-.05989.15756l-.00391.00781c-.02083.056-.03906.10026-.0599.15625l-.0052.013-.0612.16015-.0013.00261c-.02084.056-.04167.10677-.0625.16276-.00261.00651,0-.0013-.00261.00521-.34245.89193-.68229,1.78515-1.02083,2.6875l-.00391.00911c-.02083.056-.03776.10287-.05989.15886l-.00391.01172c-.02083.056-.03646.099-.05859.15494l-.00651.01823-.056.151-.00651.01693c-.01823.04948-.03776.099-.056.14844l-.00912.02474-.05338.14583-.00912.02214-.05338.14583-.00912.02474c-.01823.04948-.03776.099-.056.14844l-.00651.01692c-.01823.04948-.03515.09766-.05469.14714l-.00911.02734-.05339.14193-.00911.026c-.01823.04948-.03516.09375-.05339.14323l-.01041.02735-.05339.14583-.00781.02083c-.01823.04948-.03646.10026-.05469.14974l-.00781.02084-.056.151-.00651.01692c-.02083.0573-.03776.10287-.05859.16016l-.00261.00911c-.23047.62631-.45833,1.25261-.6875,1.88412l-.0013.00521c-.02083.05729-.03776.10547-.05859.16276l-.00782.02083c-.01823.04948-.03646.10026-.05468.151l-.00782.02344-.05208.14453-.013.03516c-.01823.04948-.03125.08594-.04948.13672-.00391.01432-.00651.02083-.01172.03515-.01562.043-.03385.09245-.04948.13672-.00521.013-.00651.01953-.01172.03386l-.04948.13671-.013.03776c-.01562.043-.03125.08855-.04687.13152l-.01563.043c-.01562.043-.02994.08464-.04557.12761-.00521.01432-.01172.03125-.01562.04557-.01563.043-.03125.08464-.04688.12891l-.01432.03906c-.01433.043-.03125.08854-.04688.13151-.0039.01432-.00911.02865-.01432.043-.01563.043-.03.08594-.04557.12891l-.01563.043c-.01562.043-.02995.08594-.04557.12891-.00781.02083-.00781.02344-.01563.04427l-.04557.1263c-.00391.01433-.01042.03125-.01562.04558-.01563.043-.02995.08333-.04428.1276-.0052.013-.01171.03255-.01692.04688-.013.03515-.02995.08593-.043.12109-.00521.01432-.013.03776-.01823.05078-.013.03646-.02865.08333-.04167.11979-.00781.02084-.01172.03386-.01953.05469l-.043.11979c-.00651.02214-.00911.03-.01692.05078l-.04558.12891c-.00521.01432-.01041.02864-.01432.043-.01823.05078-.02995.082-.04687.13411l-.01433.03776c-.01693.05078-.03255.09375-.05078.14453l-.00911.02735c-.01823.05078-.03646.10416-.05469.15625l-.00521.01562c-.10156.29167-.20182.57813-.30338.8711-.00391.013-.00782.02213-.013.03645-.01432.04428-.03125.09245-.04687.13542-.00391.01432-.01042.03-.01432.04427-.01563.04427-.03125.08854-.04558.13151l-.013.03776c-.01823.05078-.02864.08334-.04687.13542-.00521.01432-.013.03646-.01693.05078-.013.03646-.02995.08333-.04167.11979-.00781.02214-.01432.04167-.02213.0625-.013.03646-.02474.07162-.03776.10938-.00912.02734-.01432.04166-.02344.07031-.013.03646-.02344.06771-.03646.10417-.00651.02213-.01432.043-.02213.0651-.01172.03646-.02474.07162-.03646.10807-.00781.02214-.01693.04948-.02474.07032-.013.03776-.02214.0664-.03516.10286-.00651.02083-.01692.04818-.02343.07031-.013.03646-.02344.06641-.03646.10417-.00651.02083-.01693.05208-.02474.07292-.013.03776-.02084.0625-.03386.099-.00651.02084-.01692.05209-.02474.07422-.01041.02865-.02474.07162-.03515.10157-.00912.02864-.01563.04557-.02474.07422l-.03386.099-.02474.07422-.03385.09766c-.00911.02864-.01693.05208-.02734.08073-.00912.02995-.02084.0625-.03125.09245-.00912.02864-.01823.05208-.02735.08072-.01041.02995-.02213.06381-.03125.09375-.00781.02084-.02083.0612-.02864.082-.01172.03776-.01823.05468-.03.09114-.01042.02865-.01823.05469-.02865.08334-.00911.02864-.02083.06119-.02995.09114-.01041.02865-.01953.056-.02864.08464-.013.03645-.01953.05729-.03255.095-.00912.02864-.01563.04687-.02474.07552-.01042.02995-.02474.07031-.03386.10026-.01041.02865-.01692.04818-.026.07682-.01042.02995-.02213.06641-.03255.09636-.00912.02864-.01693.04948-.026.07812-.01042.02995-.02084.0625-.03125.09245-.00912.02865-.01823.056-.02865.08463-.00911.02995-.02344.07292-.03385.10157-.00651.02213-.01563.04817-.02344.07031-.01172.03646-.02344.07161-.03646.10938l-.02213.0677c-.013.03776-.02474.07292-.03646.10938-.00781.02213-.01432.04427-.02214.0651-.013.03776-.02344.069-.03515.10677-.00782.02084-.01693.04948-.02344.07162-.04037.11849-.07682.22916-.11589.349-.00781.02083-.01562.04427-.02213.0664-.013.03646-.02474.07422-.03776.11068-.00651.02213-.01433.04557-.02214.06771-.01172.03646-.02213.069-.03515.10677l-.02735.08463c-.01041.03-.02083.0612-.03.09115-.01041.02865-.02083.0625-.03125.09115-.00911.02994-.01692.05208-.026.082-.01041.02995-.02474.07422-.03385.10416-.00781.02214-.01693.04818-.02344.07032-.013.03645-.02344.07161-.03516.10677-.00781.02343-.01562.04687-.02343.069-.00912.02995-.02344.07161-.03255.10026-.00912.03-.01693.05078-.026.08073-.00911.02864-.02083.0638-.03125.09375-.00911.02995-.01692.05078-.026.08073-.01172.03515-.02213.0651-.03385.10156-.00651.02213-.01563.04948-.02344.07161l-.03385.10677c-.00782.02214-.01563.04688-.02344.069l-.03386.10417c-.00651.02214-.01692.05469-.02474.07682-.00911.02865-.02213.069-.03255.099-.00651.02214-.01692.05209-.02343.07552-.01042.02865-.02474.07292-.03386.10157-.00911.02994-.01432.04557-.02474.07552-.00911.02994-.02344.07291-.03255.10156-.00912.02995-.01432.04557-.02474.07552l-.03255.10026c-.00912.02995-.01563.04818-.02474.07943-.01172.03515-.02084.0625-.03255.099-.00782.02213-.01693.05208-.02344.07421-.013.03646-.02214.06771-.03386.10417-.00781.02344-.01562.04818-.02343.07031-.01172.03646-.02344.07292-.03516.10808-.00651.02343-.01432.04557-.02083.06771l-.03516.11067c-.00521.01433-.01693.04948-.02213.06511l-.03646.11458c-.00521.01432-.013.043-.01823.05859l-.03776.11719c-.00781.02344-.013.03906-.01953.0612l-.03776.11719c-.00782.02343-.01042.03385-.01823.05729-.01433.043-.02474.07552-.03776.11979-.00521.01432-.013.04036-.01823.056-.01433.043-.026.08073-.04037.125l-.01041.03385c-.01693.05078-.03.09115-.04558.14323l-.00911.02735c-.14584.46093-.29037.91536-.4362,1.3789-.0013.00651.0013-.0026-.0013.00521-.01563.05208-.03516.11068-.05078.16276l-.00521.01693c-.01563.05078-.03.09505-.04688.14713a.336.336,0,0,1-.01041.03386c-.01563.05078-.02735.08854-.043.14062l-.013.03776c-.01563.05209-.026.08594-.04167.13672l-.01432.043c-.013.04427-.02865.09245-.04167.13672l-.01432.043c-.013.04427-.026.08463-.04037.1289-.0039.01563-.01041.03646-.01562.05209-.013.04427-.02735.08724-.04037.13151a.46959.46959,0,0,0-.01432.04557c-.01432.04427-.026.08464-.04036.12891-.00521.01562-.01172.03646-.01563.05208-.01432.04427-.02734.08464-.04036.13021-.00521.01432-.01042.03385-.01563.04948-.01432.04427-.026.082-.03906.1263l-.01693.05339c-.013.04427-.026.08593-.04036.1302-.00391.01563-.00912.03-.013.04558-.01433.04427-.02735.08724-.04167.13281l-.01432.04948c-.01433.04427-.02735.08594-.04037.13021-.00521.01562-.01041.03385-.01562.04817-.013.04428-.026.08594-.03906.13151-.00521.01433-.01042.03386-.01563.04948-.01432.04427-.02734.08724-.04036.13282l-.01433.043c-.013.04557-.02734.09244-.04166.13671l-.01172.03907c-.01563.05208-.02865.09244-.04427.14453l-.00782.02734c-.01562.05208-.03125.10026-.04687.15365l-.00651.02083c-.03386.112-.07031.22917-.10417.33984l-.0013.00521c-.181.59636-.35677,1.18229-.53646,1.78255l-.0026.01042-.05078.16667-.00391.01432c-.01562.05208-.03125.10807-.04688.16016a.14354.14354,0,0,0-.00651.02213c-.01562.05339-.03255.10808-.04817.16016l-.00651.02083c-.01563.05209-.02995.10156-.04558.15495l-.00911.02865c-.01563.05338-.02865.10026-.04427.15234l-.00912.02865c-.01562.05338-.02864.09765-.04427.14974l-.01041.03515-.04167.14453c-.0026.00782-.01042.03125-.01172.03906-.01432.04558-.02864.09636-.04167.14193-.0052.01563-.00781.02735-.013.043-.013.04427-.02864.09636-.04166.14193l-.01172.03776c-.013.04427-.02865.099-.04167.14453l-.01172.03776c-.013.04557-.02995.10286-.043.14714l-.00911.03125c-.01563.05208-.02995.10156-.04557.15494l-.00651.02344c-.01563.05339-.03125.10807-.04688.16016l-.00521.01953c-.01562.05208-.03255.112-.04817.16536l-.00391.013c-.01823.0612-.03125.10677-.04948.168l-.00521.01823c-.01562.05208-.03255.11068-.04687.16406l-.00521.01823c-.01563.05209-.03386.11328-.04948.16667l-.0013.00651c-.1237.42448-.24479.84635-.36719,1.27214a10.67915,10.67915,0,0,0,9.46875,13.57552h1.58464a10.673,10.673,0,0,0,9.457-7.70443C335.155,365.30078,407.026,328.63672,429.03776,319.98568A10.66637,10.66637,0,0,0,439.151,309.33333C439.151,304.30078,435.4,299.76667,430.97917,298.95964Z" style="fill:#9fe27c"/><path d="M170.66667,85.33333c-1.30209,0-2.52865.26823-3.80078.38282A63.83977,63.83977,0,0,0,42.66667,106.66667c0,.651.17187,1.2539.1914,1.89974a31.92026,31.92026,0,0,0,10.47526,62.10026H170.66667a42.66667,42.66667,0,0,0,0-85.33334Z" style="fill:#ffd300"/><path d="M170.66667,85.33333c-1.30209,0-2.52865.26823-3.80078.38282A63.83977,63.83977,0,0,0,42.66667,106.66667c0,.651.17187,1.2539.1914,1.89974a31.92026,31.92026,0,0,0,10.47526,62.10026H170.66667a42.66667,42.66667,0,0,0,0-85.33334Z" style="fill:#b8ddfb"/><path d="M166.69922,85.33333H149.33333a21.33334,21.33334,0,0,0,0,42.66667,42.531,42.531,0,0,1,42.10026,37.056,42.53091,42.53091,0,0,0-20.76692-79.72266c-1.30209,0-2.52865.26823-3.80078.38282C166.82031,85.58333,166.74609,85.46484,166.69922,85.33333Z" style="fill:#99cefa"/><circle cx="181.33333" cy="117.33333" r="10.66667" style="fill:#e1ebfc"/><path d="M42.66667,106.66673a63.99993,63.99993,0,0,0,63.99993,63.99994h.00007A21.33331,21.33331,0,0,0,128,149.33335v0A21.33331,21.33331,0,0,0,106.66667,128h0a21.33331,21.33331,0,0,1-21.33332-21.33331v0a21.33332,21.33332,0,0,1,21.33332-21.33332h0A21.33331,21.33331,0,0,1,128,106.66665v0A21.33331,21.33331,0,0,0,149.33331,128h0a21.33331,21.33331,0,0,0,21.33332-21.33331v-.00009a63.99993,63.99993,0,0,0-63.99994-63.99993h-.00013A63.99992,63.99992,0,0,0,42.66667,106.6666Z" style="fill:#99cefa"/><circle cx="85.33333" cy="85.33333" r="21.33333" style="fill:#e1ebfc"/><rect x="42.66667" y="128" width="85.33333" height="42.66667" rx="21.33331" ry="21.33331" style="fill:#99cefa"/><circle cx="53.33333" cy="138.66667" r="10.66667" style="fill:#e1ebfc"/><path d="M458.66667,21.33333a31.8996,31.8996,0,0,0-30.15625,21.70573c-.63933-.05729-1.19011-.37239-1.84375-.37239a21.33333,21.33333,0,1,0,0,42.66666h32a32,32,0,0,0,0-64Z" style="fill:#b8ddfb"/></g></svg>